<svg width="89" height="70" viewBox="0 0 89 70" fill="none" xmlns="http://www.w3.org/2000/svg">
<path d="M13.756 31.0413C18.4342 31.1933 22.1434 31.8356 25.8145 32.7096C30.5307 33.8308 35.0874 35.4269 39.5794 37.2321C42.7033 38.4862 45.869 38.4786 48.9738 37.1751C54.8378 34.72 60.8689 32.8351 67.1395 31.7786C70.2672 31.2541 73.4177 30.8513 76.6024 31.1591C78.5444 31.3491 80.4294 31.7482 82.2079 32.5842C83.3936 33.1429 84.3437 33.9714 85.1418 34.9899C86.8558 37.1789 87.7374 39.6909 88.0073 42.4272C88.4253 46.6227 87.4676 50.5333 85.518 54.2272C85.3356 54.5769 85.252 54.9189 85.2634 55.3103C85.3356 57.5716 85.138 59.8138 84.7238 62.037C84.5071 63.1999 83.8345 63.9714 82.8122 64.4616C80.2698 65.6777 77.5677 66.1186 74.7668 65.9779C74.2386 65.9513 73.6875 65.6359 73.2011 65.7309C72.7374 65.8221 72.3916 66.3504 71.9204 66.5784C70.3394 67.3423 68.6521 67.7147 66.9343 67.9731C65.3838 68.2049 63.8256 68.2734 62.2599 68.1821C61.5948 68.1441 60.945 68.0225 60.3179 67.8059C59.9645 67.6843 59.7745 67.7147 59.5008 68.0415C58.8244 68.8548 57.8477 69.1474 56.8292 69.307C53.7015 69.7935 50.5624 70.0253 47.3967 69.7935C46.3098 69.7137 45.2761 69.4781 44.3868 68.8054C44.2272 68.6838 44.098 68.661 43.927 68.794C43.1023 69.4477 42.1294 69.6871 41.1071 69.7669C38.234 69.9949 35.3686 69.8847 32.5183 69.4591C32.0205 69.3831 31.5226 69.3071 31.0248 69.2272C30.0975 69.0828 29.3374 68.6192 28.7142 67.9389C28.4937 67.6995 28.3151 67.6653 28.0187 67.7755C27.2434 68.0605 26.4339 68.1821 25.6093 68.2049C22.8616 68.2772 20.1634 67.9769 17.5601 67.0458C16.7392 66.7532 15.9716 66.358 15.2951 65.7955C15.1887 65.7081 15.0937 65.6093 14.9189 65.6701C13.5089 66.1642 12.0648 66.0996 10.6169 65.9019C8.82691 65.6625 7.09015 65.2559 5.456 64.4464C4.46791 63.9562 3.82185 63.2265 3.61283 62.1472C3.16819 59.867 2.94397 57.5602 3.02757 55.2343C3.03897 54.9075 2.98957 54.6301 2.82996 54.3375C0.918377 50.7423 -0.0621137 46.9002 0.245715 42.83C0.481337 39.6795 1.47703 36.7608 3.68123 34.359C5.09117 32.8199 6.92294 32.1092 8.87632 31.6455C10.7727 31.1933 12.6995 31.0109 13.756 31.0451V31.0413ZM44.1702 54.3375C44.2386 54.193 44.2652 54.136 44.288 54.079C45.9488 49.9823 49.0042 47.7362 53.3899 47.4056C55.7613 47.227 57.7375 48.1315 59.1588 50.1039C59.5084 50.5903 59.7554 51.1338 60.0177 51.6696C60.2001 51.6012 60.2533 51.4416 60.3483 51.32C62.6209 48.5001 65.5434 47.1244 69.1727 47.4588C71.0349 47.6298 72.4296 48.5761 73.0909 50.4155C73.1783 50.6587 73.2885 50.8943 73.4063 51.1794C73.5925 50.9437 73.7408 50.7461 73.9004 50.5523C75.1127 49.0626 76.6138 48.0327 78.4988 47.5804C81.2198 46.9306 83.3898 47.8617 84.4882 50.1761C84.5946 50.3965 84.6706 50.6321 84.7618 50.8677C84.9328 50.7727 84.9328 50.6017 84.9822 50.4573C85.6245 48.5647 85.9741 46.6227 86.0083 44.62C86.0463 42.4956 85.7613 40.4396 84.8872 38.49C83.9257 36.3428 82.4968 34.682 80.171 33.9486C78.9472 33.5609 77.6893 33.3253 76.4124 33.2645C73.2657 33.1087 70.138 33.3101 67.0331 33.8574C61.3782 34.8568 55.8867 36.4302 50.627 38.7332C46.2452 40.6524 41.9774 40.5878 37.588 38.6914C31.2946 35.9703 24.7314 34.131 17.8908 33.4165C15.1925 33.1353 12.4715 33.0365 9.777 33.5419C7.85782 33.903 6.09826 34.5718 4.86694 36.1984C3.61663 37.8477 2.78815 39.6795 2.48792 41.7393C2.05848 44.715 2.39671 47.6146 3.3278 50.4573C3.36961 50.5827 3.36581 50.7461 3.56722 50.7803C3.65843 50.5789 3.74584 50.3813 3.84465 50.1837C4.88595 48.0479 6.5125 47.1358 8.87632 47.4398C11.1679 47.7324 13.0529 48.7813 14.4704 50.6359C14.6073 50.8145 14.7061 51.0426 14.9455 51.1452C15.0823 50.8031 15.2191 50.4877 15.3369 50.1609C15.7398 49.074 16.5074 48.3481 17.5525 47.8959C18.4646 47.5006 19.4299 47.3068 20.4142 47.379C23.4583 47.5994 26.0007 48.8117 27.9009 51.2592C28.0187 51.4074 28.0985 51.6088 28.3189 51.6886C28.3911 51.5404 28.4519 51.4112 28.5089 51.2858C29.212 49.7428 30.3407 48.6179 31.8837 47.9263C33.2556 47.3144 34.6959 47.2688 36.1515 47.5462C38.7015 48.0289 40.8867 49.1272 42.4714 51.2668C43.1593 52.1941 43.6762 53.2088 44.1702 54.3451V54.3375ZM29.5084 61.0109C29.5578 62.2574 29.5958 63.7091 29.6719 65.1571C29.7327 66.3162 30.3711 67.0116 31.5074 67.2321C32.3739 67.3993 33.2518 67.4791 34.1335 67.5627C36.4783 67.7793 38.8269 67.8515 41.1755 67.6615C42.6159 67.5437 42.9161 67.2017 43.0263 65.7613C43.2695 62.55 42.9959 59.3767 42.4714 56.2034C41.7722 51.9774 37.8844 49.2868 34.3197 49.492C32.1763 49.6136 30.4547 50.9741 30.0367 53.0833C29.5312 55.6334 29.5426 58.2252 29.5046 61.0147L29.5084 61.0109ZM58.7864 61.0223C58.7788 58.5179 58.737 56.0172 58.3835 53.5242C58.0453 51.1414 56.1831 49.7466 54.6364 49.5376C50.7486 49.017 47.0167 51.5746 46.0514 55.3826C45.6333 57.0243 45.4699 58.7003 45.3217 60.3762C45.1469 62.3258 45.1051 64.2792 45.3103 66.2288C45.4129 67.1979 45.7283 67.5323 46.7126 67.6159C50.1063 67.9047 53.4849 67.7869 56.8444 67.2207C57.9883 67.0268 58.6039 66.2972 58.6495 65.1343C58.699 63.7623 58.8016 62.3942 58.7864 61.0223ZM72.2016 58.514C72.2358 57.7616 72.1788 56.8153 72.099 55.8728C71.966 54.3033 71.7684 52.7413 71.2439 51.2402C70.9285 50.3433 70.3242 49.7884 69.3931 49.606C68.2264 49.378 67.0749 49.4616 65.9386 49.8112C63.191 50.6549 60.4775 53.3456 60.7359 56.7013C60.9564 59.5933 60.926 62.4968 60.6713 65.3927C60.6485 65.6663 60.7511 65.8183 60.9944 65.8829C61.192 65.9361 61.3934 65.9741 61.5948 66.0007C63.2138 66.2098 64.8403 66.1908 66.4555 65.9779C67.9718 65.7765 69.4615 65.4535 70.8677 64.815C71.5974 64.4844 71.9242 63.9638 72.0306 63.1885C72.2358 61.6949 72.1978 60.2014 72.2054 58.5103L72.2016 58.514ZM16.1274 59.4451C16.1388 60.5168 16.1616 61.5885 16.2148 62.6602C16.2756 63.9144 16.8533 64.6478 18.02 65.0621C19.5933 65.6245 21.2047 65.9551 22.8616 66.0806C24.34 66.1908 25.8259 66.206 27.2928 65.9171C27.5285 65.8715 27.6729 65.8069 27.6501 65.5333C27.6121 65.0317 27.6007 64.5262 27.5589 64.0246C27.3498 61.5505 27.3878 59.0765 27.5589 56.6025C27.6311 55.508 27.4904 54.4743 26.947 53.547C25.4763 51.0235 23.2911 49.5946 20.3344 49.4958C18.134 49.4198 17.3283 50.0697 16.7963 52.2131C16.211 54.5883 16.1464 57.0167 16.1312 59.4451H16.1274ZM83.1922 55.9032C83.2036 54.4325 83.1732 52.9655 82.797 51.5366C82.417 50.0849 81.5049 49.3742 79.9999 49.454C77.6513 49.5794 76.0096 50.8601 74.8733 52.8439C74.4362 53.6116 74.041 54.4097 74.136 55.3407C74.3374 57.2751 74.44 59.2095 74.288 61.1477C74.231 61.9002 74.1664 62.6564 74.0828 63.4089C74.0486 63.7167 74.1626 63.8231 74.4514 63.8725C75.2989 64.017 76.1502 63.9752 77.0014 63.9105C78.6622 63.7813 80.2698 63.4393 81.7937 62.7362C82.3904 62.4588 82.7134 62.0256 82.8122 61.3719C83.0858 59.5591 83.177 57.735 83.1922 55.907V55.9032ZM12.4448 63.9143C12.8059 63.9143 13.1707 63.9333 13.5318 63.9105C14.2994 63.8611 14.3222 63.8345 14.2158 63.0707C13.8928 60.7183 13.87 58.362 14.1208 55.9982C14.1816 55.4206 14.269 54.8429 14.0714 54.2652C13.2315 51.7988 11.5898 50.1647 9.03973 49.5528C7.99084 49.302 6.96094 49.397 6.15906 50.2673C5.72582 50.7385 5.53201 51.3238 5.437 51.9356C4.93535 55.1431 5.08737 58.343 5.55481 61.5391C5.62702 62.0294 5.87784 62.3866 6.32248 62.6032C6.64551 62.7628 6.96854 62.9339 7.30297 63.0631C8.95993 63.6901 10.6929 63.8953 12.4486 63.9182L12.4448 63.9143Z" fill="white"/>
<path d="M44.1817 0C57.2321 0 70.2863 0 83.3367 0C85.6587 0 87.3043 1.0641 88.0491 3.02508C88.2354 3.51913 88.338 4.02838 88.3532 4.54902C88.3912 6.06156 88.452 7.58171 88.3342 9.09045C88.0643 12.5906 85.8753 14.9012 82.4018 15.5092C80.3344 15.8703 78.2594 16.1667 76.1616 16.2655C75.8462 16.2807 75.7322 16.4061 75.7018 16.7216C75.5574 18.2607 75.394 19.796 75.2267 21.3314C75.0557 22.9047 73.984 23.8586 72.4069 23.8548C71.9014 23.8548 71.396 23.8472 70.8905 23.8396C69.0968 23.8168 68.0935 22.8667 67.9301 21.0806C67.8122 19.777 67.645 18.4811 67.5082 17.1776C67.4778 16.9002 67.4056 16.771 67.075 16.7824C62.0129 16.9838 56.9508 17.0902 51.885 17.1396C50.8285 17.151 49.772 17.1776 48.7117 17.1738C48.4228 17.1738 48.3392 17.265 48.3088 17.5462C48.1416 19.0816 47.9516 20.6131 47.7654 22.1485C47.5982 23.5204 46.6747 24.4211 45.3028 24.5161C44.5313 24.5693 43.756 24.5883 42.9845 24.5161C41.6468 24.3983 40.7195 23.4976 40.5523 22.1599C40.3623 20.6131 40.1647 19.0626 39.9975 17.512C39.9671 17.2384 39.8797 17.1738 39.625 17.1738C34.4945 17.1662 29.3679 16.999 24.2412 16.9192C23.2797 16.904 22.3144 16.8774 21.3567 16.79C20.9197 16.752 20.8171 16.904 20.7791 17.2878C20.6613 18.5609 20.513 19.8264 20.3876 21.0996C20.209 22.9085 19.1867 23.8472 17.3702 23.8548C16.8343 23.8548 16.2985 23.8624 15.7588 23.8434C14.2843 23.794 13.2468 22.8173 13.0872 21.3466C12.9237 19.8264 12.7413 18.3101 12.6007 16.7862C12.5627 16.3795 12.4031 16.2807 12.0117 16.2579C9.67824 16.1249 7.36383 15.8399 5.08741 15.3078C2.30556 14.658 0.120352 12.0053 0.0291435 9.13605C-0.0164607 7.65391 -0.00125929 6.17177 0.0253432 4.68964C0.0709474 1.96098 1.96732 0.0722067 4.69598 0.00760071C5.23183 -0.00380035 5.76768 0.00760071 6.30733 0.00760071C18.9321 0.00760071 31.5607 0.00760071 44.1854 0.00760071L44.1817 0ZM44.2577 2.1548C31.1388 2.1548 18.0238 2.1548 4.905 2.1548C4.73018 2.1548 4.55916 2.151 4.38435 2.1548C3.08083 2.21941 2.11174 3.2265 2.10794 4.52622C2.10794 5.92855 2.10794 7.33468 2.10794 8.73701C2.10794 11.0932 3.55207 12.8984 5.85889 13.4152C7.52724 13.7877 9.226 13.9131 10.9248 14.0613C15.9754 14.4983 21.0375 14.677 26.0996 14.8404C33.8637 15.0912 41.6278 15.0266 49.3957 15.019C58.8358 15.0114 68.2683 14.791 77.6856 14.0651C79.4451 13.9283 81.2123 13.7839 82.9225 13.3126C84.8758 12.773 86.2402 10.9944 86.2326 9.07524C86.225 7.60831 86.2212 6.14137 86.2174 4.67444C86.2174 3.1695 85.2027 2.151 83.7053 2.151C70.5561 2.151 57.4069 2.151 44.2577 2.151V2.1548ZM44.1665 17.1852C44.1665 17.1852 44.1665 17.1852 44.1665 17.1814C43.6154 17.1814 43.0643 17.1966 42.5133 17.1776C42.1789 17.1662 42.0839 17.2612 42.1295 17.6146C42.3195 19.0816 42.4829 20.5485 42.6387 22.0192C42.6653 22.2701 42.7565 22.3993 42.9997 22.4183C43.7712 22.4829 44.5427 22.4677 45.3104 22.4069C45.5308 22.3917 45.6562 22.2701 45.6866 22.0078C45.8462 20.5371 46.021 19.0702 46.2148 17.6032C46.2604 17.2498 46.1502 17.1662 45.8196 17.1776C45.2686 17.2004 44.7175 17.1852 44.1665 17.1852ZM71.5746 21.7532C71.5746 21.7532 71.5746 21.757 71.5746 21.7608C71.9052 21.7608 72.2359 21.7532 72.5665 21.7608C72.9579 21.7722 73.1289 21.586 73.1669 21.2022C73.3076 19.7466 73.4596 18.2911 73.6154 16.8356C73.6382 16.6227 73.604 16.5087 73.357 16.5201C72.1789 16.5733 70.9969 16.6189 69.815 16.6722C69.6554 16.6798 69.5566 16.7254 69.5794 16.9306C69.7352 18.3519 69.8796 19.777 70.024 21.2022C70.0621 21.5708 70.2217 21.7836 70.6283 21.7608C70.9437 21.7418 71.2592 21.7608 71.5746 21.7608V21.7532ZM16.6671 16.6532V16.5163C16.1008 16.5163 15.5346 16.5163 14.9683 16.5163C14.7973 16.5163 14.6643 16.5011 14.6909 16.7558C14.8581 18.2569 15.0101 19.7618 15.166 21.263C15.2002 21.6012 15.3712 21.7646 15.7208 21.7608C16.3023 21.7532 16.8875 21.7798 17.469 21.7722C18.172 21.7608 18.2366 21.681 18.3088 20.9932C18.4457 19.6782 18.5825 18.3633 18.7383 17.0484C18.7725 16.752 18.7155 16.6418 18.4115 16.6493C17.83 16.6608 17.2447 16.6493 16.6633 16.6493L16.6671 16.6532Z" fill="white"/>
</svg>
