<svg width="78" height="86" viewBox="0 0 78 86" fill="none" xmlns="http://www.w3.org/2000/svg">
<path d="M38.5479 0.00380798C43.515 0.186225 48.2426 1.31113 52.4686 4.05878C59.1572 8.41019 63.1856 14.5326 64.3485 22.4905C64.93 26.4695 64.6525 30.38 63.2996 34.1842C63.045 34.8987 62.7486 35.5979 62.3799 36.263C62.2583 36.4834 62.2621 36.6202 62.4939 36.7646C64.2193 37.8401 64.7058 39.5123 64.6677 41.4163C64.6259 43.419 63.9761 45.2584 63.121 47.0408C62.4977 48.3405 61.6617 49.4844 60.628 50.4763C59.4309 51.624 58.0209 52.3499 56.3602 52.5323C56.0866 52.5627 55.9611 52.6691 55.8547 52.9237C54.3498 56.5417 52.2406 59.7302 49.1813 62.2194C48.6531 62.6488 48.3642 63.1201 48.2958 63.8003C47.8474 68.3912 48.1856 72.8566 50.4544 76.98C52.3166 80.3585 55.1403 82.5513 58.8798 83.5242C59.0774 83.5774 59.275 83.6344 59.4689 83.7028C59.9629 83.8776 60.1757 84.193 60.0693 84.5731C59.9667 84.9379 59.5943 85.1241 59.104 85.0329C58.4846 84.9151 57.8803 84.7289 57.2875 84.5199C52.3584 82.7793 49.3371 79.2222 47.798 74.3197C46.9809 71.7241 46.6389 69.0448 46.6617 66.32C46.6655 65.7195 46.7073 65.1191 46.7985 64.5224C46.8175 64.4046 46.8973 64.2564 46.7643 64.1804C46.6617 64.1196 46.5591 64.2336 46.4679 64.283C44.9439 65.1305 43.344 65.7613 41.6376 66.1414C38.0083 66.9546 34.6032 66.2744 31.3348 64.6364C31.0954 64.5148 30.8636 64.3856 30.6242 64.264C30.5444 64.2222 30.457 64.1424 30.3658 64.2032C30.2745 64.2678 30.324 64.3742 30.3354 64.4654C30.685 67.9313 30.2707 71.3174 29.2219 74.6275C28.553 76.7443 27.5877 78.7129 26.0942 80.3737C23.9394 82.7679 21.2677 84.2956 18.1324 85.0101C18.0108 85.0367 17.8816 85.0481 17.7562 85.0557C17.38 85.0785 17.1633 84.8619 17.0645 84.5313C16.9619 84.1892 17.1367 83.946 17.4332 83.7978C17.6004 83.7142 17.7828 83.6572 17.9652 83.6116C22.48 82.4715 25.6609 79.758 27.4281 75.4332C28.99 71.6063 29.2827 67.6197 28.7734 63.5457C28.7164 63.0935 28.5492 62.7362 28.1692 62.4284C24.9769 59.8366 22.8677 56.4467 21.2373 52.7299C21.0473 52.2967 20.8801 52.1637 20.4126 52.1485C18.7481 52.0991 17.3267 51.3808 16.141 50.2559C13.5112 47.759 12.0405 44.6618 11.8086 41.0438C11.6756 38.9878 12.3635 37.2359 14.3131 36.2098C14.5525 36.0844 14.5335 35.9704 14.4271 35.7689C12.3293 31.904 12.3027 27.7274 12.6675 23.5128C12.9905 19.739 14.1535 16.2199 16.0726 12.9516C18.1514 9.40968 20.9447 6.55562 24.346 4.29061C27.6789 2.0712 31.3615 0.839886 35.2948 0.277433C36.3741 0.121619 37.4572 0.0532126 38.5631 7.62939e-06L38.5479 0.00380798ZM63.273 41.5151C63.2426 41.0362 63.2388 40.6714 63.1932 40.3104C63.0032 38.8358 62.2127 37.9389 60.8712 37.6805C60.3733 37.5855 59.8641 37.6501 59.3625 37.6425C58.7772 37.6311 58.5644 37.4677 58.515 36.8786C58.4846 36.5214 58.382 36.1984 58.2414 35.8791C57.4395 34.036 56.1588 32.5804 54.6234 31.3225C52.1798 29.3197 49.3979 27.9288 46.5173 26.7013C44.0242 25.641 41.4856 24.6833 39.1028 23.3798C38.7797 23.205 38.6315 23.262 38.4073 23.5318C36.4881 25.869 34.4397 28.0732 32.0379 29.9354C28.7126 32.5196 25.1593 34.6858 21.1803 36.0844C19.4625 36.6886 17.7638 37.3385 15.8712 37.2929C14.8565 37.2663 14.066 37.8933 13.61 38.8434C13.3098 39.4705 13.2148 40.1431 13.2452 40.831C13.3668 43.7953 14.4423 46.3719 16.4451 48.5419C17.3723 49.549 18.425 50.4079 19.8274 50.6777C20.3518 50.7803 20.3784 50.7613 20.2264 50.2331C19.8464 48.9144 19.4625 47.5918 19.0749 46.2731C18.9913 45.9919 19.0027 45.7449 19.2269 45.532C19.6298 45.1482 20.1846 45.2888 20.3822 45.8627C20.6179 46.5505 20.8079 47.2498 21.0093 47.9491C22.29 52.4335 24.2548 56.5493 27.5307 59.9392C30.2593 62.759 33.444 64.6858 37.461 64.9594C39.8172 65.1191 42.1012 64.8644 44.2256 63.8003C48.3984 61.7177 51.5109 58.5444 53.6467 54.3907C55.0453 51.6734 55.9649 48.7965 56.573 45.8057C56.7478 44.9544 57.0404 44.6466 57.5193 44.7492C58.0019 44.8518 58.1273 45.2622 57.9335 46.0945C57.5725 47.6146 57.2761 49.1538 56.725 50.6245C56.6794 50.7423 56.6224 50.8791 56.7098 50.9855C56.8086 51.1072 56.9416 51.0121 57.0556 50.9779C57.8005 50.7461 58.4922 50.3927 59.0812 49.8796C61.6541 47.645 62.9956 44.7872 63.2692 41.5151H63.273ZM58.1919 28.8523C58.2337 28.6889 58.2565 28.6433 58.2528 28.6053C58.0019 26.116 57.3939 23.718 56.3716 21.4378C54.6158 17.5234 51.9974 14.3995 48.0868 12.4918C47.988 12.4424 47.8854 12.3892 47.8056 12.317C47.5814 12.1155 47.4407 11.8837 47.5662 11.5645C47.684 11.2643 47.9006 11.1236 48.2198 11.1122C48.52 11.1008 48.7709 11.2301 49.0255 11.3555C51.7389 12.7198 53.9089 14.7112 55.6229 17.1966C58.344 21.1414 59.5183 25.6144 59.8907 30.3382C60.0351 32.1586 59.9819 33.9752 59.8527 35.7955C59.8451 35.8905 59.8109 35.9856 59.8869 36.0654C60.0921 36.282 60.8788 36.168 61.008 35.8829C61.5477 34.6896 62.1405 33.5153 62.4521 32.2346C63.3034 28.7269 63.4478 25.1583 62.7714 21.6354C61.0992 12.9326 56.0333 6.87485 47.988 3.36712C43.249 1.30353 38.2819 1.07171 33.2464 2.0598C30.1263 2.67166 27.3293 4.07399 24.6576 5.75374C24.327 5.96276 24.27 6.12618 24.5056 6.48341C26.0828 8.87003 27.6713 11.2491 29.5221 13.4381C31.4033 15.6651 33.4098 17.7705 35.7205 19.549C38.3389 21.567 41.3108 22.9541 44.3283 24.2539C46.3082 25.1089 48.3452 25.831 50.2682 26.8153C52.8943 28.1606 55.3759 29.6998 57.3483 31.9534C57.4661 32.0902 57.5497 32.2992 57.7891 32.3334C57.8271 32.0674 57.6941 31.8736 57.6409 31.6646C56.5882 27.3854 54.1142 24.098 50.5228 21.6734C46.9125 19.2374 42.8385 18.1847 38.5289 17.9605C38.1033 17.9377 37.6776 17.9225 37.2558 17.8617C36.8948 17.8085 36.6363 17.5804 36.6363 17.1966C36.6363 16.8432 36.8568 16.6228 37.1988 16.5239C37.5408 16.4251 37.8867 16.4631 38.2325 16.4821C42.2723 16.7444 46.1334 17.7249 49.7286 19.606C52.7194 21.168 55.1821 23.3418 56.9036 26.3023C57.3635 27.0927 57.7777 27.906 58.1919 28.8523ZM14.0242 26.0438C14.0242 26.9597 14.009 27.8794 14.0242 28.7953C14.066 30.9273 14.5221 32.9491 15.4912 34.8721C15.8332 35.5485 16.2208 35.8753 16.9619 35.7347C16.9771 35.7347 16.9923 35.7347 17.0075 35.7347C17.2241 35.7613 17.2925 35.6815 17.3153 35.4497C17.4256 34.283 17.6764 33.1429 18.0526 32.0294C19.1813 28.6585 21.1499 25.7968 23.4225 23.1176C23.5137 23.0111 23.6201 22.9123 23.7379 22.8325C24.061 22.6083 24.4182 22.6729 24.65 22.9883C24.9009 23.3266 24.8172 23.6344 24.5664 23.9308C23.8292 24.7973 23.1527 25.7132 22.5028 26.6481C21.1575 28.5863 19.9338 30.5929 19.2459 32.8769C19.0369 33.5723 18.8659 34.2792 18.7975 35.0051C18.7747 35.2559 18.8051 35.4231 19.1243 35.2825C19.3105 35.2027 19.5157 35.1609 19.7096 35.0963C22.8335 34.0398 25.7445 32.5804 28.4656 30.7069C31.7225 28.4647 34.6222 25.831 37.176 22.8097C37.404 22.5399 37.4116 22.4221 37.0848 22.2245C35.9067 21.5176 34.8122 20.6929 33.7443 19.8227C31.0194 17.5956 28.8 14.9126 26.7022 12.1079C25.5203 10.527 24.4258 8.88143 23.3389 7.23208C23.2287 7.06106 23.1603 6.82164 22.8563 7.08387C20.2758 9.31847 18.0944 11.8647 16.5401 14.9316C14.7691 18.4241 13.914 22.1295 14.0128 26.0438H14.0242Z" fill="white"/>
<path d="M77.6117 15.4446C77.6079 15.8703 77.4179 16.0869 77.1139 16.1401C75.6318 16.3871 74.9211 17.4664 74.3852 18.7053C73.6936 20.3091 73.4656 22.0155 73.3439 23.7408C73.3059 24.2957 73.0285 24.6187 72.6143 24.6149C72.2266 24.6149 71.9492 24.2957 71.9036 23.7636C71.7782 22.2169 71.5806 20.6853 71.0523 19.2146C70.8585 18.6749 70.6229 18.1619 70.3265 17.6755C69.8704 16.9306 69.2548 16.4023 68.3807 16.2085C68.2439 16.1781 68.1033 16.1363 67.9816 16.0679C67.7346 15.9387 67.6396 15.7221 67.6358 15.4408C67.632 15.152 67.7916 15.0114 68.0234 14.9088C68.0957 14.8784 68.1679 14.8404 68.2439 14.829C69.84 14.5782 70.6647 13.4837 71.2195 12.0927C71.6034 11.1312 71.7592 10.1165 71.896 9.09425C71.9074 8.99924 71.9112 8.90424 71.9302 8.81303C72.0062 8.41019 72.2152 8.12896 72.6599 8.16317C73.0779 8.19357 73.2945 8.44439 73.3325 8.87763C73.4085 9.74411 73.5378 10.603 73.8 11.4391C73.971 11.9863 74.199 12.4994 74.4878 12.9934C75.0503 13.9511 75.8066 14.639 76.9391 14.8138C77.3495 14.8784 77.5927 15.1026 77.6117 15.4446ZM72.6257 19.3742C72.6903 19.2868 72.7283 19.2526 72.7397 19.2146C73.1463 17.9035 73.7164 16.6836 74.7387 15.7297C74.9287 15.5511 74.7919 15.4636 74.6627 15.361C73.8114 14.6884 73.2451 13.8143 72.8309 12.8224C72.7815 12.7084 72.7815 12.5374 72.5763 12.507C72.1886 13.4647 71.6794 14.3501 70.9345 15.0722C70.4139 15.5777 70.4101 15.5701 70.9003 16.1287C71.7136 17.0598 72.1696 18.1847 72.6219 19.3704L72.6257 19.3742Z" fill="white"/>
<path d="M4.911 47.645C4.54237 47.6032 4.35235 47.3372 4.30294 46.9534C4.21554 46.2313 4.16233 45.5054 4.05972 44.7872C3.88111 43.5445 3.56568 42.3359 2.99562 41.2148C2.49018 40.2191 1.79851 39.4363 0.620402 39.2311C0.251768 39.1664 -0.0180573 38.927 0.000944463 38.509C0.0199462 38.1061 0.27077 37.8705 0.658406 37.8211C2.06834 37.6387 2.87781 36.7418 3.43646 35.5219C3.90011 34.5034 4.12053 33.4203 4.24974 32.3182C4.34475 31.5049 4.53857 31.1971 5.00601 31.1971C5.45445 31.1971 5.67487 31.5239 5.76228 32.3258C5.91429 33.7699 6.23732 35.1571 7.0848 36.3808C7.61685 37.1447 8.29712 37.6577 9.2206 37.8211C9.65004 37.8971 10.0073 38.0643 10.0073 38.547C10.0073 38.9878 9.70705 39.2083 9.28521 39.2881C8.23631 39.4895 7.57125 40.1773 7.0924 41.078C6.24112 42.6704 5.9447 44.4109 5.77368 46.1857C5.74328 46.4859 5.73188 46.7862 5.67867 47.0826C5.61407 47.4398 5.31384 47.6564 4.9186 47.645H4.911ZM7.20261 38.6192C7.16841 38.4862 7.0582 38.4178 6.96319 38.338C6.33613 37.8173 5.85349 37.1789 5.47725 36.4568C5.34804 36.206 5.23023 35.9475 5.08962 35.6967C5.02501 35.5789 4.9148 35.4763 4.83879 35.6967C4.46256 36.8026 3.8203 37.7185 2.90821 38.4406C2.7752 38.547 2.6954 38.6458 2.88541 38.813C3.8431 39.6491 4.34855 40.7702 4.80079 41.9217C4.854 42.0547 4.78939 42.2941 5.01361 42.2789C5.17703 42.2675 5.15422 42.0623 5.19983 41.9331C5.62927 40.7892 6.14612 39.6947 7.0544 38.8358C7.11901 38.775 7.22162 38.737 7.19881 38.6154L7.20261 38.6192Z" fill="white"/>
<path d="M12.6105 57.963C12.2647 57.944 12.1127 57.773 12.0709 57.4879C11.991 56.9749 11.9264 56.458 11.8314 55.945C11.744 55.4776 11.5768 55.0367 11.3374 54.6225C11.1512 54.2956 10.9193 54.0372 10.5355 53.9384C10.3911 53.9004 10.2505 53.8054 10.1327 53.7066C9.87805 53.49 9.91226 53.2772 10.1783 53.0909C10.2049 53.0719 10.2315 53.0529 10.2581 53.0453C11.5654 52.7375 11.8124 51.6772 12.0139 50.5751C12.0709 50.2597 11.9986 49.796 12.4813 49.7694C13.0171 49.7428 12.9411 50.2407 13.0095 50.5637C13.0932 50.9475 13.1388 51.3428 13.2794 51.7114C13.5226 52.3461 13.914 52.8325 14.6057 53.0149C14.8071 53.0681 15.0541 53.0985 15.0465 53.4102C15.0389 53.7104 14.8337 53.8244 14.5981 53.8852C14.0812 54.022 13.7772 54.3755 13.5606 54.8429C13.1806 55.66 13.0513 56.5303 12.9639 57.4119C12.9373 57.6818 12.8689 57.906 12.6067 57.9668L12.6105 57.963ZM12.5231 54.7821C12.7815 54.3907 13.0285 54.0106 13.2794 53.6344C13.3782 53.4862 13.3478 53.357 13.23 53.2543C13.0019 53.0529 12.8347 52.8059 12.6903 52.5399C12.6371 52.4449 12.5497 52.3119 12.4433 52.4449C12.1811 52.7603 11.9416 53.0947 11.7022 53.4254C11.63 53.5242 11.7212 53.6002 11.7744 53.6724C12.0215 54.0334 12.2647 54.3945 12.5269 54.7821H12.5231Z" fill="white"/>
<path d="M48.2046 41.8267C46.6275 41.7735 45.1682 41.3479 43.8836 40.3978C43.6252 40.2039 43.401 39.9645 43.4656 39.6035C43.515 39.3147 43.7316 39.1551 43.99 39.041C44.3397 38.889 44.5601 39.1437 44.7957 39.3033C45.533 39.8087 46.3311 40.1621 47.2165 40.3028C49.0331 40.5878 50.7091 40.1393 52.3166 39.3223C52.442 39.2577 52.5598 39.1779 52.6929 39.1246C53.0729 38.965 53.3921 39.079 53.5821 39.4249C53.7684 39.7669 53.7151 40.1013 53.3579 40.3294C52.3204 40.983 51.1803 41.3821 49.987 41.6291C49.4018 41.7507 48.8089 41.8381 48.2046 41.8305V41.8267Z" fill="white"/>
<path d="M28.8456 41.8267C27.0823 41.7735 25.4367 41.3023 23.909 40.4244C23.6315 40.2648 23.3769 40.0557 23.3883 39.6909C23.3959 39.4097 23.6011 39.2425 23.8291 39.1171C24.1028 38.965 24.3422 39.0866 24.5816 39.2159C25.6419 39.7859 26.7554 40.2078 27.9601 40.3408C29.4309 40.5042 30.8066 40.2116 32.0759 39.4439C32.2089 39.3641 32.3381 39.2691 32.475 39.1931C32.8778 38.9612 33.2084 39.0258 33.463 39.3907C33.7215 39.7593 33.5619 40.0633 33.2692 40.299C32.4864 40.9298 31.5933 41.3517 30.6204 41.5987C30.0389 41.7469 29.4499 41.8419 28.8456 41.8229V41.8267Z" fill="white"/>
</svg>
