<svg width="56" height="83" viewBox="0 0 56 83" fill="none" xmlns="http://www.w3.org/2000/svg">
<path d="M27.9992 83C25.7947 83 23.594 83 21.3895 83C21.1542 83 20.919 82.9924 20.6838 82.9735C20.0273 82.9243 19.5796 82.5347 19.4202 81.8954C19.3254 81.5246 19.3406 81.1463 19.3254 80.7718C19.2723 79.4364 19.1091 78.1086 19.1357 76.7732C19.1433 76.3722 18.9422 76.3533 18.6234 76.4025C17.599 76.5576 16.5707 76.724 15.5387 76.8262C14.8709 76.8943 14.3359 76.463 14.1689 75.8388C14.0247 75.3092 14.3169 74.6623 14.8367 74.4126C15.0454 74.3143 15.2807 74.25 15.5121 74.2159C16.4114 74.076 17.3182 73.9738 18.2175 73.8225C19.1319 73.6674 18.9725 73.8414 18.9346 72.9902C18.8853 71.8289 18.7562 70.6713 18.7638 69.5099C18.7638 69.1732 18.6386 69.1278 18.3275 69.1808C17.4738 69.3245 16.6163 69.4342 15.7587 69.5515C14.8747 69.6726 14.26 69.2754 14.1424 68.5112C14.021 67.7092 14.518 67.0926 15.4135 66.9564C16.3317 66.8164 17.2499 66.684 18.1681 66.563C18.4906 66.5214 18.6121 66.4003 18.5855 66.0485C18.4944 64.8114 18.4299 63.5706 18.3806 62.3336C18.3692 62.0045 18.2478 61.9364 17.9443 61.9818C17.212 62.0915 16.4797 62.1785 15.7474 62.2693C14.9164 62.3714 14.2562 61.9213 14.1424 61.1798C14.0323 60.4724 14.5294 59.8444 15.3452 59.7006C16.1647 59.5569 16.9919 59.4396 17.8153 59.3337C18.0809 59.2996 18.2137 59.224 18.1985 58.9327C18.1264 57.6162 18.0657 56.2997 18.0088 54.9795C17.9974 54.7525 17.8911 54.7374 17.7014 54.7639C17.0298 54.8546 16.362 54.9417 15.6867 55.0135C14.8861 55.0968 14.2448 54.6315 14.1348 53.9051C14.0323 53.2318 14.4839 52.6076 15.2503 52.4525C15.9598 52.3087 16.677 52.2255 17.3941 52.1385C17.7166 52.1006 17.8418 51.9834 17.8228 51.6353C17.709 49.5812 17.618 47.527 17.5307 45.4691C17.5193 45.2345 17.4358 45.14 17.2044 45.1059C13.3038 44.5536 10.4847 42.3216 8.17013 39.3066C5.82525 36.2537 4.30753 32.7848 3.08576 29.1682C1.84123 25.476 0.881273 21.7044 0.281772 17.8571C-0.325317 13.8623 -0.0293609 9.95826 1.93988 6.35687C3.93948 2.69116 6.99011 0.417591 11.2435 0.0544256C14.1651 -0.195251 16.954 0.432723 19.6555 1.55627C21.5109 2.328 23.1614 3.45154 24.8992 4.42755C25.6126 4.82854 26.3487 5.19171 27.1493 5.37708C28.2951 5.6381 29.3689 5.36951 30.382 4.83233C31.9377 4.00764 33.4137 3.04676 34.9807 2.24099C37.724 0.826153 40.6077 0.00902984 43.7114 0.0165958C47.87 0.0279447 51.1103 1.7719 53.421 5.20684C55.4244 8.18783 56.0732 11.5358 55.9936 15.0653C55.9291 17.9593 55.2309 20.7473 54.5631 23.5429C53.6525 27.3524 52.4649 31.0748 50.7536 34.6006C49.2473 37.6988 47.3767 40.5588 44.5575 42.6772C42.8956 43.9256 41.0592 44.7768 38.9875 45.0643C38.6118 45.1173 38.4828 45.2648 38.4715 45.628C38.4373 46.6494 38.3804 47.667 38.3197 48.6846C38.3007 48.9721 38.3956 49.044 38.6726 48.9986C39.2607 48.9002 39.8526 48.8057 40.4445 48.7451C41.2337 48.6657 41.8104 49.1121 41.9319 49.8611C42.0343 50.5118 41.6018 51.1511 40.8733 51.3024C40.122 51.4613 39.3555 51.5672 38.5929 51.658C38.3007 51.6921 38.1603 51.8018 38.1527 52.0893C38.1262 53.4095 38.0579 54.726 37.944 56.0425C37.9213 56.3224 38.0275 56.3981 38.3045 56.3527C38.9723 56.2392 39.6401 56.1446 40.3117 56.0576C41.1161 55.9517 41.7687 56.3905 41.9015 57.1131C42.0343 57.8319 41.6321 58.4371 40.805 58.6036C39.9436 58.7814 39.0672 58.8911 38.1945 58.997C37.9137 59.0311 37.8378 59.1408 37.8226 59.4094C37.7505 60.7258 37.6671 62.0423 37.5722 63.3588C37.5494 63.6841 37.7164 63.6841 37.9478 63.6539C38.7409 63.5479 39.5377 63.4344 40.3307 63.3437C41.1578 63.2491 41.7839 63.6917 41.9015 64.418C42.0191 65.1368 41.56 65.7496 40.7177 65.9009C39.8222 66.0636 38.9154 66.1885 38.0123 66.2982C37.6064 66.3473 37.4432 66.4873 37.428 66.9375C37.3901 68.1934 37.299 69.4456 37.2042 70.6978C37.17 71.1404 37.447 71.0117 37.6557 70.9815C38.5398 70.8491 39.42 70.6675 40.3155 70.5994C41.1806 70.5351 41.7991 70.9701 41.8977 71.7229C41.9964 72.4531 41.5524 73.0167 40.6797 73.1718C39.6439 73.3572 38.6005 73.5009 37.557 73.6371C37.2307 73.6787 37.0827 73.7544 37.0676 74.1403C36.9689 76.5576 36.8247 78.9711 36.7071 81.3847C36.654 82.4288 36.1304 82.9773 35.0793 82.9811C32.7193 82.9962 30.3592 82.9849 27.9954 82.9849C27.9954 82.9887 27.9954 82.9924 27.9954 83H27.9992ZM28.0219 42.5486C31.0119 42.5486 34.0018 42.5032 36.9917 42.5638C39.8374 42.6243 42.1405 41.5007 44.1477 39.5979C46.1094 37.7405 47.4753 35.4744 48.6023 33.0533C50.397 29.1947 51.5542 25.128 52.4914 20.9894C53.1478 18.0917 53.5614 15.1863 53.2351 12.2129C52.9923 9.98852 52.2751 7.91545 50.875 6.1488C49.2549 4.106 47.1756 2.7933 44.5006 2.66846C41.5335 2.52849 38.7181 3.15647 36.1076 4.59778C34.624 5.41869 33.167 6.29256 31.6721 7.09455C29.4638 8.27862 27.1986 8.50182 24.8954 7.34422C24.4743 7.13238 24.0493 6.92431 23.6395 6.69734C22.4064 6.00883 21.1808 5.30142 19.9439 4.6167C17.8646 3.46667 15.6373 2.8614 13.2545 2.69494C10.625 2.50958 8.29155 3.07324 6.34128 4.90799C4.20888 6.91675 3.09335 9.4173 2.80499 12.2999C2.55836 14.774 2.75566 17.2178 3.26789 19.6465C4.21647 24.152 5.38511 28.5856 7.32021 32.7885C8.54577 35.4442 10.0255 37.9183 12.2528 39.893C14.2031 41.6256 16.3962 42.6054 19.0522 42.5562C22.0421 42.5032 25.032 42.5448 28.0219 42.5448V42.5486ZM28.0371 45.2648C25.567 45.2648 23.1007 45.2686 20.6306 45.261C20.3157 45.261 20.2019 45.3102 20.2246 45.6734C20.3233 47.4135 20.4675 49.1499 20.4713 50.8939C20.4713 51.6505 20.4865 51.6505 21.2719 51.537C23.6054 51.2003 25.9351 50.8712 28.2648 50.5307C30.5338 50.1978 32.7952 49.8384 35.068 49.5169C35.474 49.4601 35.6257 49.2937 35.6371 48.8965C35.6675 47.8788 35.694 46.8536 35.7927 45.8436C35.842 45.3215 35.6637 45.2572 35.2084 45.261C32.8179 45.2799 30.4275 45.2724 28.0371 45.2686V45.2648ZM35.4436 52.6757C35.5157 52.1233 35.5157 52.1271 34.9579 52.2103C34.5216 52.2747 34.0852 52.3276 33.6489 52.3881C30.7387 52.8118 27.8322 53.2318 24.922 53.6592C23.6471 53.8484 22.3722 54.0451 21.1011 54.2456C20.8735 54.2834 20.6344 54.2985 20.6686 54.6579C20.7824 55.9404 20.8469 57.2266 20.8355 58.5166C20.8355 58.8079 20.9456 58.8608 21.1998 58.823C21.712 58.7473 22.228 58.6944 22.7441 58.6225C26.7546 58.0361 30.769 57.4422 34.7796 56.8634C35.1552 56.8104 35.2804 56.6667 35.2918 56.296C35.326 55.0892 35.3867 53.8786 35.4398 52.6719L35.4436 52.6757ZM27.9992 80.3292C29.8242 80.3292 31.6493 80.3065 33.4744 80.3444C33.9714 80.3557 34.108 80.193 34.127 79.7353C34.1915 78.0254 34.2636 76.3155 34.3736 74.6094C34.3964 74.2159 34.3395 74.1214 33.9373 74.1819C31.4065 74.564 28.8719 74.9233 26.3373 75.2903C24.9523 75.4908 23.5712 75.6951 22.1901 75.9031C21.989 75.9334 21.7272 75.9031 21.7537 76.255C21.8372 77.492 21.9169 78.729 21.9662 79.9661C21.9814 80.299 22.1142 80.3368 22.3912 80.333C24.2618 80.3217 26.1362 80.3292 28.0068 80.3292H27.9992ZM35.068 60.1206C35.1249 59.4283 35.1249 59.4321 34.4495 59.5531C34.1877 59.6023 33.9221 59.6363 33.6565 59.6779C29.5814 60.2719 25.5101 60.8696 21.4312 61.4522C21.0746 61.5013 20.9987 61.6337 21.0214 61.9629C21.1011 63.1848 21.1694 64.4067 21.2074 65.6324C21.2188 65.9804 21.2757 66.0939 21.6589 66.0371C23.7116 65.7269 25.7643 65.447 27.817 65.1519C30.0253 64.8341 32.2336 64.5088 34.4419 64.191C34.772 64.1456 34.9162 64.017 34.9238 63.6539C34.9465 62.4773 35.0111 61.3008 35.0642 60.1243L35.068 60.1206ZM34.5444 69.0824C34.5709 69.0824 34.5937 69.0824 34.6202 69.0824C34.6582 68.4545 34.6696 67.8265 34.7454 67.2023C34.7948 66.8278 34.6885 66.7937 34.3546 66.8429C30.1543 67.4557 25.954 68.0572 21.7537 68.6512C21.4426 68.6966 21.3781 68.8441 21.3933 69.124C21.4692 70.4254 21.5375 71.7267 21.5906 73.0281C21.602 73.2853 21.6665 73.3269 21.9283 73.2853C23.9658 72.9751 26.0034 72.6914 28.0409 72.3925C30.0936 72.0937 32.1464 71.7797 34.1991 71.4884C34.4609 71.4506 34.5481 71.3522 34.5481 71.0988C34.5406 70.4254 34.5481 69.7482 34.5481 69.0749L34.5444 69.0824Z" fill="white"/>
</svg>
