<svg width="88" height="67" viewBox="0 0 88 67" fill="none" xmlns="http://www.w3.org/2000/svg">
<path d="M49.6701 38.8105C48.5072 38.7649 47.3329 38.8371 46.1814 38.6014C45.4935 38.4608 44.8513 38.21 44.2812 37.7958C44.1026 37.6628 43.9506 37.5868 43.7378 37.7464C42.8333 38.4304 41.7844 38.6585 40.6785 38.7307C37.3228 38.9473 33.9937 38.7649 30.695 38.1188C29.8171 37.9478 29.0836 37.4993 28.4908 36.8267C28.3578 36.6747 28.2361 36.5607 28.0081 36.6519C26.963 37.0699 25.8647 37.1649 24.7588 37.1687C22.2354 37.1687 19.7614 36.8077 17.3595 36.021C16.5577 35.7588 15.8356 35.3407 15.1895 34.7935C15.0527 34.6795 14.9311 34.5731 14.7297 34.6339C12.9397 35.1735 11.146 35.0177 9.34458 34.6719C8.25768 34.4629 7.20879 34.1512 6.15989 33.8016C4.35092 33.1973 3.44264 31.9888 3.23362 30.0963C3.0056 28.0555 2.76237 26.0223 2.85358 23.9663C2.86118 23.7535 2.80038 23.571 2.70157 23.381C1.21183 20.5726 0.284542 17.6007 0.0489202 14.4236C-0.1639 11.5353 0.314945 8.76107 1.53866 6.13883C2.99419 3.03394 5.46822 1.22497 8.80873 0.518106C12.1606 -0.18876 15.5088 -0.074749 18.8797 0.381293C22.7484 0.901942 26.5336 1.77602 30.2693 2.88573C33.2032 3.75601 36.0649 4.82011 38.8847 6.00582C42.3013 7.43855 45.7292 7.42335 49.1343 5.98301C54.2572 3.81301 59.5359 2.14086 64.997 1.06536C68.5921 0.358491 72.21 -0.169758 75.8964 0.0506626C77.6369 0.157073 79.3357 0.457301 80.985 1.03875C83.5617 1.94704 85.2186 3.82821 86.3777 6.19963C87.8219 9.14871 88.1715 12.284 87.7801 15.5143C87.4494 18.2506 86.6248 20.8348 85.2946 23.2518C85.1198 23.571 85.0666 23.8979 85.078 24.2513C85.1616 26.5771 84.9374 28.8839 84.5194 31.1718C84.375 31.9584 83.9455 32.5551 83.3033 33.0187C82.3076 33.7332 81.1637 34.0828 79.997 34.3641C78.1842 34.8011 76.3486 35.1165 74.4712 34.9075C74.1596 34.8733 73.8404 34.8239 73.5478 34.7175C73.1639 34.5807 72.8789 34.6263 72.5711 34.9189C71.678 35.7664 70.5113 36.059 69.375 36.3592C66.8591 37.0243 64.3015 37.3435 61.6907 37.0813C61.0902 37.0205 60.5125 36.8685 59.9425 36.6899C59.7943 36.6443 59.6461 36.5341 59.5168 36.7127C58.753 37.773 57.6167 38.1188 56.4082 38.286C54.1735 38.5976 51.9313 38.8637 49.6663 38.8105H49.6701ZM84.565 19.7973C84.7284 19.6567 84.7512 19.4971 84.8006 19.3489C85.5417 17.2093 85.8495 15.0089 85.8153 12.7476C85.7849 10.8133 85.4315 8.95489 84.5992 7.20293C83.6909 5.29135 82.3912 3.75601 80.339 2.99594C78.72 2.39548 77.0365 2.18646 75.3263 2.13326C71.8224 2.02685 68.3679 2.43348 64.94 3.12895C59.6879 4.19685 54.622 5.8424 49.6853 7.9326C45.866 9.54775 42.0124 9.53254 38.1931 7.90979C33.568 5.94501 28.8176 4.38687 23.9075 3.31897C21.5779 2.81352 19.2293 2.45629 16.8503 2.27767C14.3078 2.09145 11.7768 1.98124 9.26478 2.51709C7.52041 2.88953 5.90146 3.52039 4.76136 4.99112C3.68966 6.37825 2.87258 7.89459 2.49635 9.62375C1.77048 12.9491 2.10111 16.206 3.15381 19.4135C3.19181 19.5275 3.21461 19.6643 3.38183 19.7061C3.49964 19.4515 3.60985 19.193 3.73146 18.9422C4.70055 16.9774 6.57793 15.9703 8.71373 16.3162C11.0205 16.6924 12.9207 17.7717 14.3496 19.6491C14.4637 19.8011 14.5473 19.9987 14.7601 20.0633C15.7482 17.4563 17.0365 16.4112 19.5485 16.339C22.8548 16.244 25.5531 17.5323 27.6585 20.0785C27.7953 20.2457 27.9321 20.4168 28.0689 20.5878C28.1221 20.546 28.1525 20.5308 28.1639 20.508C28.2361 20.3674 28.2969 20.2229 28.3692 20.0823C29.5245 17.8553 31.3182 16.5062 33.8493 16.3618C37.6458 16.1452 41.6476 18.0643 43.5022 22.1497C43.6542 22.4841 43.7986 22.8262 43.943 23.1606C44.0912 23.1074 44.0836 22.9934 44.114 22.9136C45.5544 19.3603 48.15 17.2055 51.9199 16.4834C55.4733 15.8069 58.1829 17.1827 59.7487 20.4434C59.7715 20.4928 59.7829 20.5726 59.8665 20.5574C59.8855 20.5498 59.9045 20.546 59.9121 20.5346C59.9805 20.451 60.0489 20.3636 60.1173 20.2761C62.2873 17.5437 65.1072 16.168 68.6035 16.3542C70.6139 16.4606 72.1416 17.4069 72.9093 19.3679C73.0043 19.6073 73.1031 19.8429 73.2095 20.1127C73.2893 20.0291 73.3387 19.9911 73.3691 19.9379C74.5396 18.1403 76.2422 17.0952 78.2526 16.5062C80.8634 15.7423 83.1398 16.7114 84.2495 19.0334C84.3636 19.2729 84.451 19.5275 84.5574 19.7973H84.565ZM38.0031 36.7051C39.0785 36.7051 40.1502 36.7051 41.222 36.6025C42.3963 36.4884 42.7003 36.192 42.8219 35.0329C42.8295 34.9683 42.8295 34.9075 42.8333 34.8429C43.0727 31.7456 42.8865 28.6711 42.3659 25.608C41.6818 21.5683 39.2154 18.9802 35.3314 18.4748C32.3177 18.0833 30.1401 19.6681 29.7487 22.5108C29.209 26.3947 29.2736 30.2825 29.5017 34.1778C29.5663 35.2951 30.1629 35.945 31.2688 36.1502C33.492 36.5645 35.7494 36.6443 38.0031 36.7051ZM58.5934 29.9404C58.5896 27.4512 58.5326 24.9658 58.1943 22.4879C57.8713 20.1279 55.9825 18.604 54.1394 18.4292C50.415 18.0833 46.8047 20.6144 45.8698 24.2399C45.3415 26.2921 45.1439 28.3975 45.0223 30.5067C44.9349 32.0154 44.9349 33.5318 45.0983 35.0443C45.2161 36.1426 45.5544 36.5189 46.6641 36.6025C47.3709 36.6557 48.0816 36.6861 48.7885 36.6937C51.4259 36.7279 54.0557 36.6329 56.6552 36.1464C57.8409 35.9222 58.4033 35.2305 58.4527 34.0106C58.506 32.6539 58.6048 31.301 58.5896 29.9442L58.5934 29.9404ZM72.0048 28.3177C71.9972 27.075 72.0314 25.9235 71.9136 24.772C71.7502 23.2176 71.5716 21.6709 71.0547 20.1849C70.7203 19.2272 70.0552 18.6876 69.0747 18.5052C68.1094 18.3266 67.1594 18.3912 66.2131 18.6154C63.2754 19.3071 60.2275 22.0623 60.5505 25.7677C60.7748 28.3785 60.6988 31.0007 60.5467 33.6192C60.4745 34.8771 60.4707 34.8885 61.7477 35.0063C63.6136 35.1773 65.4682 35.0861 67.3076 34.7479C68.5199 34.5275 69.7018 34.2234 70.8115 33.6572C71.4538 33.3266 71.7502 32.8325 71.8566 32.1484C72.0618 30.8449 71.9896 29.5338 72.0086 28.3215L72.0048 28.3177ZM27.2328 28.2455C27.2595 27.5842 27.3013 26.4327 27.3583 25.285C27.3811 24.81 27.3393 24.3425 27.248 23.8751C26.6324 20.6258 22.7408 18.3494 20.0502 18.4102C17.8802 18.4596 17.0859 19.022 16.5995 21.135C15.7862 24.677 15.8318 28.2645 16.0522 31.8634C16.1168 32.9579 16.6793 33.5622 17.6636 33.9422C19.6169 34.6985 21.6539 34.9607 23.7213 35.0785C24.8272 35.1393 25.9293 35.1013 27.02 34.8885C27.3165 34.8315 27.4799 34.7327 27.4457 34.3603C27.2633 32.4905 27.21 30.6169 27.229 28.2455H27.2328ZM4.95138 25.0038C4.92477 26.6151 5.08059 28.2113 5.225 29.815C5.32001 30.8905 5.83686 31.5176 6.82875 31.9014C8.22728 32.4373 9.67522 32.6995 11.1574 32.8135C11.925 32.8743 12.6965 32.9237 13.4718 32.8287C14.076 32.7565 14.095 32.7451 14.0304 32.1294C14.0228 32.0496 14.0076 31.9736 13.9962 31.8938C13.772 29.9974 13.696 28.0935 13.8176 26.1819C13.8708 25.3648 14.0836 24.5477 13.981 23.7345C13.6466 20.9982 10.9711 18.8054 8.77073 18.4368C6.75654 18.0985 5.61264 18.946 5.2212 20.9526C4.95898 22.2903 4.93998 23.6471 4.95138 25V25.0038ZM82.9954 24.8822C83.003 23.3202 82.9802 21.7545 82.5204 20.2457C82.1479 19.022 81.3043 18.4064 80.0312 18.3988C77.8459 18.3874 76.2688 19.4971 75.0527 21.1958C74.2622 22.2979 73.8214 23.5026 73.9924 24.9164C74.2888 27.3524 74.228 29.796 73.905 32.2283C73.8556 32.6121 73.9848 32.7755 74.3648 32.8059C75.2313 32.8705 76.0978 32.8857 76.9643 32.8211C78.5794 32.6957 80.1376 32.3651 81.6159 31.6734C82.2164 31.3922 82.5242 30.9589 82.623 30.3053C82.8928 28.5077 82.9878 26.7025 83.003 24.886L82.9954 24.8822Z" fill="white"/>
<path d="M1.75533 52.0889C1.78193 50.0975 1.94915 48.3532 2.34438 46.6164C2.99424 43.7623 5.88631 41.7291 9.09381 42.2916C11.0168 42.6298 12.7421 43.3861 14.1407 44.7846C14.3117 44.9556 14.4257 45.043 14.6005 44.777C15.657 43.1885 17.2456 42.5196 19.0583 42.3676C22.395 42.0902 25.2643 43.1543 27.6129 45.5561C27.9284 45.8791 28.0006 45.5865 28.126 45.4155C29.4257 43.6407 31.1853 42.6298 33.3515 42.341C35.1984 42.094 36.9618 42.4626 38.6644 43.1581C40.7394 44.0017 42.4153 45.3471 43.6618 47.2054C43.924 47.5931 44.0229 47.5589 44.2851 47.2016C46.5501 44.0816 49.6094 42.3752 53.4743 42.284C56.1004 42.2232 58.259 43.2569 59.8171 45.4193C60.0299 45.7157 60.1402 45.7613 60.41 45.4687C62.2342 43.5115 64.5638 42.6222 67.167 42.3524C68.6035 42.2042 70.0021 42.3486 71.3056 43.0327C72.0847 43.4431 72.7763 43.9675 73.2514 44.7162C73.4832 45.081 73.6162 44.9936 73.8708 44.7466C75.6418 43.0137 77.8042 42.2118 80.2554 42.2384C82.5318 42.265 84.5612 43.7927 85.3593 45.9703C85.9978 47.7147 86.1384 49.5389 86.165 51.3706C86.1992 53.647 85.9788 55.9045 85.5645 58.1467C85.2947 59.6212 84.4472 60.6169 83.1627 61.2896C81.5209 62.1484 79.7462 62.5741 77.922 62.8059C76.4171 62.9959 74.9083 63.0947 73.4072 62.7451C73.2742 62.7147 73.1602 62.7603 73.0538 62.8363C71.5944 63.8814 69.9109 64.3412 68.1893 64.6909C66.3271 65.0671 64.446 65.2457 62.5458 65.1811C61.7705 65.1545 61.0104 65.0101 60.2504 64.8771C60.0946 64.8505 59.9539 64.8125 59.8133 64.9455C58.9088 65.793 57.7839 66.1236 56.5982 66.2946C53.7214 66.7089 50.8331 66.9559 47.9182 66.7925C46.6375 66.7203 45.372 66.591 44.2015 66.002C44.0533 65.9298 43.9202 65.8956 43.7568 65.983C42.7307 66.534 41.6096 66.6937 40.4733 66.7659C37.1176 66.9787 33.7885 66.7317 30.4898 66.1236C29.6537 65.9678 28.9089 65.5878 28.2552 65.0481C28.0386 64.8695 27.841 64.8353 27.5673 64.8809C23.5466 65.5574 19.6588 65.0595 15.9078 63.4786C15.866 63.4596 15.8166 63.4444 15.7824 63.414C15.0186 62.7185 14.1331 62.8591 13.1944 62.9161C10.2529 63.0909 7.41025 62.5779 4.7424 61.2934C3.45789 60.6739 2.67501 59.6402 2.39759 58.2189C1.99095 56.1211 1.80853 54.0043 1.75913 52.0927L1.75533 52.0889ZM15.2618 60.1152C15.372 60.7233 15.7634 61.0197 16.1701 61.2934C16.6413 61.6126 17.1582 61.8482 17.6978 62.0344C20.3733 62.9731 23.1399 63.2315 25.9522 63.0643C26.8529 63.0111 27.7839 62.9199 28.4756 62.194C28.6162 62.0496 28.677 62.1598 28.7264 62.3081C29.1027 63.357 29.8969 63.9384 30.9534 64.1284C34.389 64.7479 37.8511 64.8467 41.3284 64.5883C42.3089 64.5161 43.183 64.2044 43.7226 63.2923C43.9088 62.9807 44.0913 63.0567 44.2433 63.3113C44.8323 64.2994 45.79 64.5275 46.8313 64.6035C49.9096 64.8277 52.9803 64.7213 56.0396 64.3108C57.4343 64.1246 58.7226 63.7826 59.2471 62.2434C59.2889 62.118 59.3991 62.0838 59.5017 62.2054C60.0072 62.7907 60.714 62.9085 61.4171 62.9997C62.9258 63.1935 64.4422 63.1555 65.9509 62.9883C67.7447 62.7869 69.5042 62.4335 71.146 61.6506C71.7426 61.3656 72.3355 61.0501 72.6091 60.3775C72.6851 60.1913 72.7763 60.1875 72.9207 60.3129C73.3464 60.6853 73.8708 60.7689 74.4143 60.8297C75.695 60.9779 76.9719 60.9057 78.2336 60.7081C79.6854 60.4801 81.1067 60.1304 82.3988 59.3856C83.0601 59.0055 83.4325 58.4621 83.5655 57.7058C83.919 55.6954 84.0748 53.6698 84.0596 51.6329C84.0482 50.1849 84.0178 48.7294 83.6529 47.3081C83.2349 45.6815 82.0416 44.4958 80.6431 44.3476C79.1495 44.188 77.7586 44.4958 76.4969 45.3319C75.0679 46.2782 73.9848 47.5209 73.2856 49.0942C73.2058 49.2728 73.1564 49.5503 72.9093 49.5161C72.6737 49.4819 72.6851 49.2044 72.6357 49.0144C72.4875 48.4368 72.3507 47.8515 72.1949 47.2739C71.811 45.8373 70.9294 44.9138 69.4548 44.5832C66.5514 43.9371 62.3444 44.9214 60.6456 48.9726C60.3796 49.6111 60.1364 50.2609 59.8817 50.907C59.8285 51.0438 59.7487 51.1692 59.5739 51.1502C59.4105 51.1312 59.4029 50.9792 59.3877 50.8614C59.3269 50.3597 59.2699 49.8581 59.2243 49.3564C59.0077 47.0116 57.3393 45.0696 55.0667 44.5262C50.9015 43.5267 46.0712 46.4606 44.9387 50.6904C44.7563 51.3744 44.6309 52.0737 44.4789 52.7654C44.4143 53.0618 44.3003 53.343 43.9507 53.3278C43.6276 53.3164 43.5326 53.0276 43.4718 52.7616C43.3768 52.3473 43.2894 51.9293 43.221 51.5112C42.4761 47.0458 38.0183 44.1158 34.1571 44.3362C31.5121 44.4882 29.4751 46.0767 28.8632 48.6116C28.696 49.3032 28.6694 50.0139 28.5744 50.717C28.5554 50.869 28.6124 51.1198 28.3654 51.1274C28.1678 51.135 28.0918 50.9336 28.031 50.774C27.8752 50.3787 27.7307 49.9797 27.5825 49.5807C26.9479 47.8743 25.9636 46.4682 24.3446 45.5371C22.8739 44.6896 21.3043 44.3286 19.6284 44.416C17.2836 44.5414 16.3183 45.3167 15.6684 47.5513C15.5126 48.0795 15.41 48.623 15.2808 49.1588C15.2466 49.307 15.2504 49.5123 15.0566 49.5275C14.8817 49.5427 14.7981 49.364 14.7259 49.2272C14.6081 49.003 14.5207 48.7636 14.3953 48.547C12.9132 45.9513 10.861 44.2412 7.69908 44.3438C6.20554 44.3932 5.14144 45.1343 4.55239 46.5214C4.21796 47.3157 4.09254 48.1555 4.00514 49.003C3.74671 51.5607 3.91773 54.1031 4.18755 56.6531C4.34717 58.1581 4.89442 59.2716 6.41076 59.834C8.54276 60.6245 10.7318 60.9817 12.9968 60.8715C13.7796 60.8335 14.5815 60.7727 15.2656 60.1114L15.2618 60.1152Z" fill="white"/>
</svg>
