<svg width="32" height="31" viewBox="0 0 32 31" fill="none" xmlns="http://www.w3.org/2000/svg">
<path d="M16.0036 7.55199C11.4632 7.55199 7.801 11.1006 7.801 15.5C7.801 19.8994 11.4632 23.448 16.0036 23.448C20.5439 23.448 24.2061 19.8994 24.2061 15.5C24.2061 11.1006 20.5439 7.55199 16.0036 7.55199ZM16.0036 20.6672C13.0695 20.6672 10.6708 18.3499 10.6708 15.5C10.6708 12.6501 13.0624 10.3328 16.0036 10.3328C18.9448 10.3328 21.3363 12.6501 21.3363 15.5C21.3363 18.3499 18.9376 20.6672 16.0036 20.6672ZM26.4549 7.22688C26.4549 8.25756 25.5982 9.08072 24.5417 9.08072C23.478 9.08072 22.6284 8.25064 22.6284 7.22688C22.6284 6.20311 23.4851 5.37303 24.5417 5.37303C25.5982 5.37303 26.4549 6.20311 26.4549 7.22688ZM31.8876 9.10839C31.7662 6.62507 31.1808 4.42536 29.3033 2.61302C27.4329 0.80068 25.1627 0.23346 22.5999 0.108948C19.9585 -0.036316 12.0415 -0.036316 9.40011 0.108948C6.8444 0.226542 4.57423 0.793763 2.69671 2.6061C0.819186 4.41844 0.240937 6.61815 0.112437 9.10147C-0.0374791 11.6609 -0.0374791 19.3322 0.112437 21.8916C0.233798 24.3749 0.819186 26.5746 2.69671 28.387C4.57423 30.1993 6.83726 30.7665 9.40011 30.8911C12.0415 31.0363 19.9585 31.0363 22.5999 30.8911C25.1627 30.7735 27.4329 30.2062 29.3033 28.387C31.1737 26.5746 31.7591 24.3749 31.8876 21.8916C32.0375 19.3322 32.0375 11.6678 31.8876 9.10839ZM28.4752 24.6378C27.9184 25.9936 26.8404 27.0381 25.434 27.5846C23.3281 28.3939 18.3308 28.2071 16.0036 28.2071C13.6763 28.2071 8.67195 28.387 6.57312 27.5846C5.1739 27.045 4.09593 26.0005 3.53196 24.6378C2.69671 22.5972 2.88946 17.755 2.88946 15.5C2.88946 13.245 2.70385 8.39591 3.53196 6.36221C4.08879 5.00642 5.16676 3.9619 6.57312 3.41543C8.67909 2.6061 13.6763 2.79287 16.0036 2.79287C18.3308 2.79287 23.3352 2.61302 25.434 3.41543C26.8332 3.95498 27.9112 4.9995 28.4752 6.36221C29.3104 8.40282 29.1177 13.245 29.1177 15.5C29.1177 17.755 29.3104 22.6041 28.4752 24.6378Z" fill="#F5F5F5"/>
</svg>
