<svg width="76" height="33" viewBox="0 0 76 33" fill="none" xmlns="http://www.w3.org/2000/svg">
<path d="M38.0036 32.9922C34.4346 33.0459 30.9112 32.6086 27.4639 31.7035C20.9879 30.0006 15.3718 26.7788 10.745 21.8925C6.59761 17.5124 3.41667 12.4957 1.20219 6.87294C0.776041 5.76834 0.311837 4.66374 0.060711 3.49777C-0.388273 1.40362 1.60552 -0.498747 3.65258 0.114921C4.90821 0.490793 6.1258 1.01241 7.36621 1.44198C11.3005 2.79205 15.2729 3.9887 19.3442 4.82482C23.0959 5.59191 26.8856 6.14421 30.7057 6.4894C33.8334 6.77322 36.9687 6.91897 40.104 6.81925C42.737 6.73487 45.3624 6.55844 47.9802 6.23626C52.7136 5.66095 57.386 4.7788 61.99 3.53612C65.1786 2.67699 68.2758 1.56471 71.3654 0.421755C72.1492 0.130263 72.933 -0.130546 73.7854 0.0919086C75.4063 0.513805 76.3575 2.11701 75.8781 3.75858C75.178 6.15955 74.2267 8.46081 73.1005 10.7007C71.4491 13.9915 69.4934 17.0905 67.0886 19.8827C64.1588 23.2809 60.8409 26.2188 56.8838 28.3743C53.0408 30.4762 48.9314 31.7802 44.6242 32.4859C42.425 32.8464 40.2181 32.9845 37.996 32.9845L38.0036 32.9922ZM36.7708 13.8688C36.7708 12.511 36.7556 11.1609 36.7784 9.80321C36.7784 9.43501 36.6871 9.33528 36.3142 9.32761C34.4346 9.28159 32.5626 9.18187 30.6905 8.99777C29.1609 8.84435 27.6314 8.72162 26.1094 8.45314C25.7441 8.39177 25.5995 8.47615 25.6756 8.89038C25.7593 9.3583 25.7821 9.83389 25.8202 10.3095C26.0028 12.6798 26.1779 15.0577 26.3529 17.428C26.3681 17.6888 26.467 17.7886 26.7258 17.8116C29.9371 18.0801 33.1561 18.3179 36.3751 18.3869C36.7252 18.3869 36.7556 18.2565 36.7556 17.9727C36.748 16.6073 36.7556 15.2342 36.7556 13.8688H36.7708ZM39.2364 13.8534C39.2364 15.2342 39.244 16.6226 39.2364 18.0033C39.2364 18.3409 39.3278 18.4329 39.6702 18.4176C40.7889 18.3485 41.9151 18.3409 43.0414 18.2718C45.1265 18.1414 47.204 18.034 49.2815 17.8039C49.5402 17.7732 49.6316 17.6735 49.6468 17.4127C49.6772 16.776 49.7229 16.1317 49.7761 15.495C49.9588 13.2397 50.1338 10.9845 50.3241 8.72929C50.3469 8.46848 50.248 8.41478 50.0197 8.45314C49.7305 8.49916 49.4337 8.5145 49.1369 8.56053C45.9864 9.04379 42.8131 9.23556 39.6322 9.32761C39.3201 9.33528 39.2364 9.42733 39.2364 9.73417C39.2517 11.1073 39.2364 12.4727 39.2364 13.8457V13.8534ZM36.7708 25.6665C36.7708 24.2091 36.7632 22.7516 36.7784 21.2941C36.7784 20.9566 36.6795 20.8722 36.3523 20.8646C34.9597 20.8339 33.5747 20.7802 32.1821 20.7188C30.409 20.6421 28.6435 20.481 26.8856 20.2509C26.6801 20.2202 26.6192 20.3046 26.6345 20.4887C26.6421 20.6038 26.6345 20.7265 26.6497 20.8416C26.8704 23.4497 27.0987 26.0577 27.2965 28.6658C27.327 29.034 27.4715 29.1568 27.8064 29.2488C30.6068 29.9929 33.4605 30.3381 36.3447 30.4685C36.7328 30.4838 36.7784 30.3611 36.7784 30.0312C36.7632 28.5738 36.7784 27.1163 36.7784 25.6589L36.7708 25.6665ZM39.2364 25.6742C39.2364 25.6742 39.2364 25.6742 39.244 25.6742C39.244 27.147 39.244 28.6198 39.244 30.0926C39.244 30.4071 39.3278 30.5145 39.6474 30.4838C40.416 30.4148 41.1846 30.3994 41.9456 30.3304C44.1144 30.131 46.2528 29.7934 48.3531 29.1951C48.5738 29.1338 48.6499 29.0494 48.6727 28.8116C48.8021 27.2084 48.9467 25.6128 49.0913 24.0096C49.1902 22.9127 49.2739 21.8158 49.3728 20.7188C49.4033 20.3813 49.3728 20.2279 48.9391 20.2893C47.8889 20.435 46.8235 20.504 45.7581 20.5884C43.7034 20.7418 41.6564 20.8492 39.5941 20.8646C39.3201 20.8646 39.2136 20.9336 39.2212 21.2481C39.244 22.7209 39.2288 24.1937 39.2288 25.6665L39.2364 25.6742ZM23.7275 17.4587C23.8873 17.4817 23.9862 17.405 23.9482 17.1289C23.8492 16.3158 23.7655 15.5026 23.7046 14.6895C23.5448 12.6414 23.3926 10.5933 23.2481 8.54519C23.2176 8.15397 23.1263 7.95453 22.6697 7.89316C19.8845 7.50962 17.1677 6.79623 14.4434 6.10586C14.0325 5.99846 13.9868 6.03682 14.0325 6.47406C14.2379 8.45314 14.4358 10.4399 14.6413 12.419C14.7554 13.4852 14.8848 14.5438 14.9989 15.61C15.037 15.9859 15.2044 16.1777 15.6001 16.2237C16.1861 16.2927 16.7644 16.4308 17.3428 16.5305C19.4279 16.8834 21.5206 17.1672 23.7123 17.4587H23.7275ZM52.1656 16.9294C52.0972 17.4434 52.1048 17.4587 52.4777 17.4127C55.0346 17.1289 57.5763 16.73 60.1104 16.2774C60.917 16.1317 60.917 16.1163 61.0236 15.2802C61.4041 12.3116 61.6552 9.33528 61.9596 6.35899C61.9976 5.99846 61.8454 6.05216 61.6095 6.10586C58.8243 6.78856 56.0315 7.45593 53.2006 7.90851C52.9266 7.95453 52.7897 8.07726 52.7744 8.36876C52.5766 11.2223 52.3711 14.0682 52.1656 16.9218V16.9294ZM2.435 3.06053C2.47305 3.20627 2.5111 3.41339 2.57959 3.60516C3.88088 7.32552 5.63876 10.8158 7.70104 14.1679C7.79997 14.329 7.92934 14.4287 8.11198 14.4824C9.46654 14.866 10.8287 15.2035 12.1985 15.5026C12.4572 15.5563 12.5866 15.5794 12.5333 15.1958C12.1148 12.0278 11.7952 8.84435 11.5516 5.65328C11.5288 5.36945 11.4071 5.29275 11.1635 5.21604C9.41327 4.66374 7.64016 4.21116 5.93555 3.52078C5.02997 3.15258 4.11678 2.82273 3.19599 2.50056C2.73939 2.33947 2.435 2.56192 2.44261 3.06053H2.435ZM73.5723 3.02217C73.5875 2.55425 73.2374 2.34714 72.758 2.52357C70.125 3.49777 67.4767 4.44128 64.7905 5.25439C64.5165 5.33877 64.4861 5.5152 64.4632 5.753C64.3339 7.2795 64.2121 8.806 64.0371 10.3325C63.8468 11.9434 63.7707 13.5619 63.4968 15.1651C63.4663 15.3569 63.3902 15.6177 63.7783 15.518C65.1405 15.1728 66.5027 14.8353 67.8649 14.4978C68.0779 14.4441 68.2225 14.3213 68.3367 14.1296C70.1174 11.207 71.6698 8.16932 72.9254 4.98591C73.1842 4.33389 73.4353 3.68954 73.5723 3.02984V3.02217ZM24.7548 28.29C24.77 28.1749 24.7929 28.1135 24.7929 28.0598C24.5874 25.5668 24.3515 23.0815 24.1917 20.5884C24.1536 19.9978 23.9101 19.9287 23.4307 19.8674C21.4978 19.6296 19.5573 19.3918 17.6396 19.0159C17.2743 18.9469 17.2819 19.1233 17.3123 19.3764C17.5102 21.0257 17.7233 22.6826 17.9059 24.3318C17.944 24.6463 18.0962 24.8381 18.3473 24.9992C19.816 25.9273 21.3532 26.7251 22.9132 27.4692C23.5068 27.753 24.1232 27.9985 24.7548 28.2746V28.29ZM51.2601 27.845C51.2753 27.9755 51.0927 28.2976 51.5569 28.1135C53.7028 27.2544 55.7575 26.2188 57.698 24.9531C57.9416 24.792 58.0633 24.6003 58.0861 24.3088C58.147 23.6414 58.2307 22.9817 58.3144 22.3144C58.4362 21.3248 58.5732 20.343 58.6949 19.3534C58.7178 19.2 58.7939 18.9699 58.4666 19.0236C56.3815 19.3764 54.2888 19.6679 52.1961 19.9211C51.9297 19.9517 51.8689 20.0821 51.8536 20.3276C51.6634 22.8206 51.4655 25.306 51.2601 27.8527V27.845ZM15.2424 22.6826C15.2424 22.5828 15.2653 22.5215 15.2577 22.4678C15.1131 21.2404 14.9609 20.0208 14.8239 18.7934C14.8011 18.5556 14.6489 18.5096 14.4738 18.4713C13.8803 18.3485 13.2867 18.2335 12.6931 18.1107C11.9093 17.942 11.1255 17.7656 10.296 17.5891C10.6461 18.3562 14.0857 21.8848 15.2424 22.6902V22.6826ZM60.7724 22.6672C62.5988 21.1024 64.2425 19.4915 65.6884 17.6735C64.2425 17.9113 62.8271 18.2105 61.4193 18.5096C61.2747 18.5403 61.2062 18.64 61.191 18.7934C61.0616 20.0438 60.9246 21.2941 60.7724 22.6672Z" fill="#62D16D"/>
</svg>
