<svg width="70" height="67" viewBox="0 0 70 67" fill="none" xmlns="http://www.w3.org/2000/svg">
<g clip-path="url(#clip0_3_322)">
<path d="M53.4765 66.9868C52.5644 67.0066 51.7383 66.7358 50.9385 66.3131C45.7634 63.5787 40.5816 60.8575 35.4131 58.1164C35.1289 57.9645 34.9174 57.9579 34.6332 58.1164C30.4627 60.3291 26.2855 62.5351 22.1018 64.7345C21.0112 65.3092 19.9141 65.864 18.8103 66.4188C15.2545 68.1955 12.1613 65.6196 11.5862 63.1428C11.3549 62.1454 11.4871 61.1745 11.6656 60.2036C12.3662 56.3926 12.9874 52.5749 13.6352 48.7573C13.9326 46.9872 14.2564 45.2237 14.5803 43.4536C14.6266 43.2026 14.5671 43.0573 14.3886 42.8856C11.269 39.8803 8.15598 36.8685 5.04957 33.8567C3.89953 32.7405 2.75611 31.6044 1.63251 30.4618C-0.171848 28.6322 -0.508927 26.2677 0.740247 24.2069C1.59286 22.8067 2.85525 22.0009 4.48116 21.7763C7.4686 21.3602 10.456 20.9441 13.4435 20.4818C16.3252 20.0392 19.2135 19.643 22.1018 19.2401C22.3529 19.207 22.4785 19.0881 22.5843 18.8702C24.9042 14.0354 27.2968 9.24025 29.6827 4.4451C29.9736 3.85727 30.2379 3.25622 30.5486 2.6882C32.115 -0.158505 35.8823 -0.871833 38.2816 1.22192C38.8301 1.70407 39.2333 2.29851 39.5638 2.93919C41.1831 6.0567 42.7032 9.22704 44.2631 12.371C45.3404 14.544 46.4508 16.6972 47.4554 18.9032C47.5545 19.1146 47.6933 19.2004 47.9247 19.2335C49.6431 19.4712 51.3549 19.7222 53.0734 19.9732C55.043 20.2572 57.0126 20.5544 58.9822 20.8384C61.1434 21.1489 63.3047 21.4329 65.466 21.7697C68.1229 22.1858 69.7885 23.9758 69.9868 26.6441C70.0859 27.9981 69.6563 29.22 68.6781 30.1778C65.6907 33.0971 62.7495 36.0627 59.729 38.9424C58.3675 40.237 57.0324 41.5514 55.6775 42.8459C55.466 43.0507 55.3999 43.2422 55.4594 43.5262C56.2459 47.5816 56.8143 51.6701 57.5942 55.7255C57.9577 57.6145 58.2485 59.5167 58.5261 61.4189C58.9491 64.3316 56.5102 67.0132 53.4831 67L53.4765 66.9868ZM14.4746 61.8218C14.4613 62.6078 14.7521 63.1758 15.3536 63.5787C16.1269 64.1005 16.9068 64.0542 17.7132 63.6183C19.3985 62.7134 21.0905 61.8152 22.7825 60.9301C26.5235 58.9751 30.271 57.0332 34.0053 55.0584C34.7125 54.6885 35.347 54.6885 36.041 55.0716C36.8143 55.5009 37.6272 55.8642 38.4071 56.2803C43.0007 58.7109 47.6338 61.0754 52.1943 63.5655C52.3992 63.6777 52.6041 63.7768 52.8222 63.8495C54.2432 64.3316 55.5783 63.3475 55.5387 61.8548C55.5188 61.1613 55.3338 60.4876 55.2214 59.8073C54.772 57.1521 54.3093 54.497 53.8599 51.8418C53.351 48.8432 52.8486 45.8512 52.3397 42.8525C52.2604 42.4034 52.3728 42.0137 52.6636 41.6703C52.8486 41.4589 53.0403 41.2476 53.2386 41.0494C56.4177 37.9121 59.61 34.7748 62.8619 31.7035C64.0582 30.574 65.2545 29.4446 66.3781 28.2491C67.5545 27.0008 66.9531 25.158 65.2941 24.7816C64.9438 24.7023 64.5803 24.6891 64.2234 24.6363C61.7449 24.2664 59.273 23.8899 56.7944 23.5266C53.4435 23.0379 50.0859 22.5491 46.7284 22.0802C45.9683 21.9745 45.466 21.598 45.1289 20.9177C44.4151 19.4712 43.6682 18.038 42.9478 16.5849C40.9121 12.4568 38.8764 8.32878 36.8473 4.19412C36.4706 3.42134 35.8361 3.05147 34.9967 3.04487C34.1639 3.04487 33.5492 3.42134 33.1725 4.1743C32.0092 6.51904 30.846 8.85717 29.6894 11.2019C28.2155 14.1939 26.7548 17.1925 25.2611 20.1713C24.4812 21.7301 24.501 21.9084 22.5777 22.166C19.8678 22.5359 17.1646 22.952 14.4613 23.3417C11.269 23.804 8.08327 24.2664 4.89094 24.7353C4.05155 24.8608 3.41705 25.2637 3.13945 26.0959C2.86186 26.9414 3.06014 27.6943 3.70125 28.3152C4.3688 28.9691 5.04296 29.6229 5.72372 30.2768C9.47785 33.8963 13.2254 37.529 16.9465 41.1815C17.5942 41.8156 17.7859 42.4761 17.6206 43.3611C17.1844 45.6662 16.8143 47.9845 16.4177 50.2962C15.9022 53.3147 15.3933 56.3397 14.8711 59.3582C14.7257 60.1904 14.5473 61.0226 14.4679 61.802L14.4746 61.8218Z" fill="#62D16D"/>
</g>
<defs>
<clipPath id="clip0_3_322">
<rect width="70" height="67" fill="white"/>
</clipPath>
</defs>
</svg>
