<svg width="67" height="67" viewBox="0 0 67 67" fill="none" xmlns="http://www.w3.org/2000/svg">
<g clip-path="url(#clip0_3_328)">
<path d="M56.3851 42.0308C57.0153 41.4606 57.4709 40.8751 57.8657 40.2441C58.1846 39.7347 58.458 39.1872 58.7541 38.6626C58.83 38.5181 58.906 38.3737 58.9971 38.2444C59.4223 37.6362 60.0753 37.6438 60.4625 38.2748C60.6447 38.579 60.8194 38.8907 60.9712 39.21C61.89 41.1717 63.3858 42.5707 65.2536 43.6123C65.6788 43.848 66.1192 44.0685 66.5217 44.3346C67.1671 44.768 67.1595 45.3155 66.5065 45.7336C65.9218 46.1062 65.3144 46.4407 64.7145 46.7905C63.2567 47.6345 62.1481 48.813 61.3357 50.2804C61.0472 50.7974 60.7586 51.3144 60.4473 51.8086C60.0373 52.4625 59.4223 52.4701 59.0123 51.8086C58.6478 51.2232 58.3365 50.5997 57.9872 49.9991C57.5013 49.1627 56.8711 48.4404 56.1421 47.8017C56.0662 47.7409 56.0055 47.604 55.8916 47.6497C55.7701 47.7029 55.7777 47.8473 55.7625 47.9614C55.5878 49.3984 55.3752 50.8278 55.0336 52.2344C53.9022 56.8876 52.1331 61.2443 49.02 64.9623C48.4353 65.6618 47.7671 66.2625 46.9167 66.6274C45.307 67.3117 43.8264 67.0684 42.5128 65.9203C41.5182 65.0459 40.8652 63.9207 40.3412 62.7193C39.2023 60.1114 38.6784 57.3438 38.2 54.5686C37.6078 51.1548 37.3876 47.7105 37.2889 44.251C37.213 41.6963 34.8212 40.0008 32.4826 40.7763C31.0247 41.2629 29.9921 42.6239 29.9693 44.1978C29.9237 47.604 29.6048 50.9799 29.0809 54.3405C28.6329 57.1842 28.0711 60.005 26.9473 62.6813C26.5829 63.5557 26.1045 64.3692 25.5274 65.122C24.2518 66.7795 21.7234 67.8363 19.4151 66.1256C18.7014 65.5934 18.056 64.9927 17.441 64.354C15.4061 62.2175 14.2443 59.5868 13.3256 56.842C12.3082 53.7931 11.6855 50.6682 11.4122 47.4596C11.0325 42.9508 10.7744 38.4421 10.7212 33.9182C10.706 32.7397 10.3795 31.66 9.77971 30.6411C9.04319 29.3866 8.1776 28.2309 7.37275 27.0296C5.74027 24.6042 4.90505 21.8822 4.44188 19.031C4.08501 16.8184 4.03186 14.5907 4.34317 12.3629C5.13283 6.77449 8.1776 2.99567 13.4775 1.06444C16.1046 0.0988219 18.8153 -0.235722 21.5867 0.159648C23.7735 0.471382 25.8767 1.06444 27.9116 1.93121C29.8174 2.74476 31.8068 3.15534 33.9024 3.09451C35.6716 3.04129 37.342 2.58509 38.9441 1.88559C41.8446 0.631051 44.8742 -0.0684501 48.0481 0.0151859C51.1991 0.0988218 54.1907 0.851545 56.8559 2.6003C60.1132 4.73682 62.0874 7.7249 62.6569 11.6178C62.9454 13.5718 63.12 15.5182 62.9302 17.4875C62.543 21.3271 61.3888 24.9007 59.1489 28.0788C58.382 29.1661 57.7746 30.3446 57.1368 31.5079C56.537 32.6028 56.332 33.7053 56.4307 34.9446C56.5901 36.9214 56.4914 38.9059 56.3851 40.8828C56.3699 41.2325 56.3851 41.5746 56.3851 42.0308ZM12.422 36.8226C12.6498 41.0424 12.8169 44.8821 13.2117 48.6989C13.6217 52.645 14.5936 56.4086 16.4235 59.9441C17.3726 61.7765 18.5268 63.4264 20.22 64.6582C21.6019 65.6618 22.9458 65.5325 24.062 64.2476C24.7985 63.4036 25.3148 62.4228 25.7021 61.3812C27.1523 57.4807 27.6079 53.3901 28.0179 49.292C28.2002 47.452 28.2229 45.6044 28.3596 43.7644C28.6026 40.5862 31.7916 38.2976 34.8819 39.0656C37.2661 39.6586 38.929 41.7723 38.9897 44.4107C39.0656 47.4748 39.2555 50.5237 39.7262 53.5422C40.1286 56.1045 40.5311 58.6744 41.4878 61.1074C41.9737 62.3468 42.4976 63.5709 43.4847 64.5137C44.5477 65.5325 45.8006 65.5934 46.9547 64.6734C47.6456 64.1259 48.2227 63.4797 48.7238 62.765C50.3943 60.3927 51.518 57.7392 52.5279 55.0476C53.5302 52.3789 53.8718 49.5581 54.297 46.7525C54.3274 46.5548 54.2439 46.4559 54.0844 46.3647C53.7579 46.1974 53.4314 46.0226 53.1125 45.8401C52.2166 45.3155 52.209 44.7224 53.0822 44.1826C53.4846 43.9317 53.8946 43.696 54.3122 43.4755C54.4869 43.3842 54.578 43.3006 54.5932 43.0877C54.6843 41.9852 54.7526 40.8751 54.7602 39.7651C54.7754 37.7426 54.7754 35.7125 54.783 33.6901C54.783 33.1578 54.8437 32.6256 55.0563 32.1314C55.7321 30.5727 56.4383 29.0293 57.4405 27.6455C58.8756 25.661 59.9234 23.4941 60.5992 21.1523C61.442 18.2098 61.5103 15.2141 61.1155 12.1956C60.8725 10.3708 60.341 8.62969 59.2476 7.13945C56.7951 3.80161 53.3631 2.18972 49.3313 1.75633C45.922 1.38377 42.6723 2.04526 39.544 3.41385C37.547 4.28062 35.4666 4.77483 33.2798 4.76723C31.2601 4.75962 29.3391 4.25021 27.4864 3.48228C25.1098 2.50145 22.6725 1.81716 20.0909 1.70311C17.7067 1.59667 15.4213 1.92361 13.2345 2.91203C9.77211 4.4783 7.37275 6.98738 6.3477 10.6902C5.7099 12.9864 5.73268 15.3358 5.95287 17.6852C6.27177 21.1979 7.45627 24.4065 9.49118 27.2881C10.0606 28.0941 10.5846 28.938 11.1237 29.7592C12.05 31.1658 12.4372 32.7092 12.4296 34.3668C12.4296 35.3096 12.4296 36.26 12.4296 36.8226H12.422ZM64.3121 45.0645C64.2893 44.9505 64.2058 44.9049 64.1071 44.8593C62.3228 43.9012 61.0244 42.4718 59.9993 40.7535C59.7184 40.2897 59.7184 40.2897 59.4526 40.7307C58.4504 42.3654 57.1824 43.7416 55.5119 44.7148C55.3676 44.7984 55.0943 44.7908 55.0943 44.9809C55.0943 45.1862 55.3601 45.2242 55.5195 45.3155C56.3016 45.7717 57.0305 46.2963 57.6531 46.9578C58.3669 47.7105 59.0047 48.5164 59.4982 49.4288C59.6728 49.7558 59.7867 49.6873 59.931 49.4288C59.9841 49.3376 60.0297 49.2463 60.0905 49.1627C61.1231 47.528 62.3759 46.1214 64.1223 45.2242C64.1982 45.1862 64.2893 45.171 64.3197 45.0645H64.3121Z" fill="#62D16D"/>
<path d="M9.17988 38.8299C9.1571 39.0504 9.03561 39.2937 8.76986 39.4457C8.54208 39.5826 8.32188 39.7271 8.07891 39.8411C6.92478 40.3885 6.12752 41.2933 5.56565 42.4186C5.35304 42.852 5.14804 43.3386 4.54819 43.331C3.98632 43.3234 3.81168 42.8444 3.61426 42.4414C2.99924 41.1869 2.03493 40.2897 0.812473 39.651C0.630243 39.5522 0.448013 39.4457 0.296154 39.3165C-0.106271 38.9591 -0.0910852 38.4801 0.334119 38.138C0.508756 38.0011 0.698579 37.8871 0.895995 37.7806C2.0729 37.1724 2.97646 36.2904 3.59149 35.1195C3.69019 34.937 3.79649 34.7621 3.91039 34.5872C4.28244 34.0398 4.91265 34.0322 5.2923 34.572C5.42897 34.7621 5.53528 34.975 5.64158 35.1879C6.20345 36.2904 7.02349 37.1267 8.12446 37.6894C8.38262 37.8262 8.63319 37.9859 8.87616 38.1456C9.08117 38.2824 9.19507 38.4877 9.17988 38.8223V38.8299ZM6.72736 38.7462C5.88455 38.2216 5.22397 37.5829 4.71524 36.7922C4.60894 36.6249 4.51782 36.7238 4.44949 36.8302C3.92557 37.5905 3.26499 38.214 2.48292 38.7462C3.28777 39.2861 3.96354 39.9171 4.47986 40.6927C4.57097 40.8295 4.6469 40.8295 4.73802 40.6851C5.21637 39.8867 5.89214 39.2861 6.72736 38.7462Z" fill="#62D16D"/>
<path d="M5.04175 50.5008C5.47202 50.5008 5.68715 50.2905 5.68715 49.8698C5.68715 49.6189 5.67196 49.368 5.77827 49.1246C5.93012 48.7673 6.19588 48.5544 6.5983 48.5696C6.98554 48.5924 7.20574 48.8205 7.30444 49.1855C7.38797 49.4896 7.37278 49.8013 7.36519 50.1055C7.35 50.3868 7.42593 50.5084 7.73724 50.4704C8.01059 50.44 8.29912 50.4552 8.57246 50.4932C9.04322 50.5617 9.30898 50.8962 9.30138 51.3448C9.29379 51.7782 8.97489 52.0747 8.49653 52.1279C8.13967 52.166 7.65372 51.9607 7.44871 52.2344C7.27407 52.4625 7.40315 52.9187 7.38037 53.2684C7.35 53.7094 7.03869 54.0364 6.63627 54.0668C6.21106 54.0972 5.88457 53.8615 5.75549 53.4205C5.66437 53.1012 5.68715 52.7742 5.70234 52.4549C5.71752 52.1736 5.61881 52.0899 5.34547 52.1203C5.11009 52.1431 4.87471 52.1279 4.63933 52.1127C4.1306 52.0671 3.78892 51.7098 3.79651 51.2612C3.8117 50.805 4.11541 50.5313 4.64692 50.4856C4.776 50.478 4.91267 50.4856 5.04175 50.4856V50.5008Z" fill="#62D16D"/>
<path d="M61.3357 55.3518C61.5938 55.3518 61.7305 55.3518 61.8596 55.3518C62.095 55.3594 62.1709 55.2605 62.1481 55.0248C62.1178 54.7283 62.1026 54.4318 62.1633 54.1428C62.2468 53.7323 62.4746 53.4738 62.9074 53.4586C63.3326 53.4357 63.5908 53.6714 63.7426 54.0516C63.8489 54.3405 63.8338 54.6371 63.8034 54.926C63.7654 55.3137 63.9097 55.405 64.2742 55.367C64.5171 55.3366 64.7753 55.367 65.0183 55.4126C65.4131 55.481 65.6485 55.7243 65.6864 56.1273C65.7168 56.5303 65.527 56.7964 65.1397 56.9332C64.7905 57.0625 64.4412 57.0093 64.0843 57.0017C63.8717 57.0017 63.8034 57.0701 63.8034 57.2754C63.8034 57.6099 63.8262 57.9521 63.7426 58.2866C63.6288 58.7124 63.3478 58.9025 62.9378 58.9101C62.5278 58.9253 62.262 58.6896 62.1861 58.2486C62.1405 57.9749 62.1178 57.686 62.1329 57.4123C62.1633 57.0397 62.0115 56.9485 61.6698 56.9941C61.4648 57.0245 61.2598 57.0093 61.0548 56.9941C60.5081 56.9713 60.2043 56.6823 60.1816 56.1881C60.1588 55.7547 60.4777 55.4202 60.9788 55.3518C61.1383 55.329 61.3053 55.329 61.3357 55.329V55.3518Z" fill="#62D16D"/>
<path d="M57.4405 16.4459C57.3115 19.51 56.5674 22.384 54.8058 24.9463C54.6843 25.1288 54.5476 25.3113 54.3958 25.4633C54.0921 25.7675 53.6744 25.7979 53.3555 25.5546C53.029 25.3037 52.9379 24.9159 53.1505 24.5357C53.31 24.2544 53.4922 23.9883 53.6669 23.707C55.7473 20.3235 56.3092 16.6816 55.3221 12.8647C54.5704 9.96028 52.4216 8.39401 49.6654 7.53484C49.3844 7.4512 49.0883 7.40558 48.815 7.30674C48.3366 7.13947 48.124 6.75931 48.2303 6.30311C48.329 5.90774 48.7846 5.64923 49.263 5.75567C51.2675 6.19666 53.1126 6.9798 54.6008 8.45483C56.1422 9.97549 56.9926 11.8307 57.2583 13.9672C57.3646 14.7884 57.4633 15.6095 57.4557 16.4459H57.4405Z" fill="#62D16D"/>
<path d="M47.228 23.6309C47.2052 23.9883 46.985 24.2012 46.7117 24.3684C46.2865 24.627 45.8461 24.8779 45.4209 25.144C44.4338 25.7598 43.6821 26.5886 43.1582 27.6302C43.0291 27.8964 42.8849 28.1549 42.7178 28.3982C42.3837 28.8772 41.7611 28.8924 41.4118 28.421C41.2524 28.2081 41.1233 27.9724 41.0094 27.7367C40.3336 26.3833 39.3693 25.3341 37.995 24.6726C37.7672 24.5661 37.547 24.4369 37.342 24.3C36.7802 23.9122 36.7726 23.3116 37.3268 22.9238C37.6306 22.7185 37.9495 22.5285 38.2836 22.3688C39.4377 21.8214 40.2577 20.947 40.8576 19.8369C41.017 19.5404 41.1689 19.2286 41.3587 18.9549C41.7839 18.3238 42.4141 18.3391 42.8165 18.9853C43.0215 19.3123 43.1962 19.6544 43.386 19.9814C44.0542 21.1523 45.0489 21.9582 46.2106 22.5893C46.446 22.7185 46.6737 22.8554 46.8863 22.9999C47.1065 23.1519 47.2052 23.38 47.2204 23.6385L47.228 23.6309ZM44.7224 23.6005C43.6593 22.9923 42.8241 22.2091 42.2091 21.2131C42.0876 21.0154 42.0117 21.0762 41.9358 21.2131C41.3359 22.2091 40.4855 22.9542 39.4908 23.6461C40.6146 24.2848 41.3891 25.2124 42.0952 26.2465C42.7938 25.144 43.6593 24.3152 44.7299 23.6005H44.7224Z" fill="#62D16D"/>
<path d="M49.8249 30.9073C49.8097 31.6068 49.673 31.6448 50.4551 31.6296C50.6145 31.6296 50.7816 31.6296 50.941 31.6372C51.4042 31.6752 51.7155 31.9794 51.7535 32.4203C51.7838 32.8081 51.4877 33.1655 51.0397 33.2415C50.7816 33.2871 50.5082 33.3175 50.2501 33.2947C49.9236 33.2719 49.7869 33.3632 49.8249 33.7129C49.8552 33.9714 49.84 34.2451 49.8021 34.5112C49.7489 34.9446 49.3996 35.226 48.9744 35.2183C48.5416 35.2183 48.2379 34.9446 48.1924 34.4884C48.162 34.2071 48.1468 33.9258 48.1696 33.6521C48.2 33.3632 48.0937 33.2871 47.8279 33.3023C47.5166 33.3251 47.2053 33.3327 46.9016 33.2567C46.4916 33.1503 46.241 32.8309 46.2486 32.428C46.2562 32.0402 46.5599 31.7056 46.9699 31.6524C47.2357 31.622 47.5014 31.622 47.7672 31.6372C48.0633 31.6524 48.2076 31.5916 48.1696 31.2494C48.1392 31.0061 48.1696 30.7476 48.1924 30.4967C48.2303 30.0177 48.5416 29.706 48.9744 29.6984C49.3921 29.6908 49.7413 30.0025 49.8021 30.4587C49.8248 30.6336 49.8173 30.8085 49.8249 30.9073Z" fill="#62D16D"/>
</g>
<defs>
<clipPath id="clip0_3_328">
<rect width="67" height="67" fill="white"/>
</clipPath>
</defs>
</svg>
