<svg width="55" height="55" viewBox="0 0 55 55" fill="none" xmlns="http://www.w3.org/2000/svg">
<circle cx="27.5" cy="27.5" r="27.5" fill="#096729"/>
<path d="M37.6565 17.2141C34.9442 14.4953 31.3321 13 27.4935 13C19.5703 13 13.123 19.4473 13.123 27.3705C13.123 29.9016 13.7833 32.3743 15.0391 34.5558L13 42L20.619 39.9998C22.7163 41.1455 25.079 41.7475 27.4871 41.7475H27.4935C35.4103 41.7475 42 35.3002 42 27.377C42 23.5384 40.3687 19.9328 37.6565 17.2141ZM27.4935 39.3266C25.3444 39.3266 23.2406 38.7504 21.4087 37.6629L20.975 37.404L16.4567 38.5886L17.6607 34.1804L17.3759 33.7272C16.1783 31.8241 15.5504 29.6297 15.5504 27.3705C15.5504 20.7873 20.9103 15.4275 27.5 15.4275C30.6913 15.4275 33.6884 16.6703 35.9411 18.9295C38.1937 21.1886 39.579 24.1857 39.5725 27.377C39.5725 33.9667 34.0768 39.3266 27.4935 39.3266ZM34.0444 30.3806C33.6884 30.1993 31.9212 29.3319 31.5911 29.2154C31.2609 29.0924 31.0214 29.0342 30.7819 29.3967C30.5424 29.7592 29.8563 30.5618 29.6426 30.8078C29.4355 31.0473 29.2219 31.0797 28.8658 30.8984C26.7556 29.8433 25.3703 29.0147 23.9786 26.6261C23.6096 25.9917 24.3475 26.0371 25.0337 24.6647C25.1502 24.4252 25.092 24.2181 25.0013 24.0368C24.9107 23.8556 24.1922 22.0884 23.8944 21.3699C23.6031 20.6708 23.3054 20.7679 23.0853 20.7549C22.8781 20.742 22.6386 20.742 22.3991 20.742C22.1596 20.742 21.7712 20.8326 21.4411 21.1886C21.1109 21.5511 20.1853 22.4185 20.1853 24.1857C20.1853 25.9529 21.4734 27.6618 21.6482 27.9013C21.8295 28.1408 24.1792 31.7658 27.7848 33.3259C30.0634 34.3098 30.9567 34.394 32.096 34.2257C32.7886 34.1221 34.2192 33.3583 34.517 32.5167C34.8147 31.6752 34.8147 30.9567 34.7241 30.8078C34.64 30.646 34.4004 30.5554 34.0444 30.3806Z" fill="#FFE200"/>
</svg>
